<?xml version="1.0" encoding="UTF-8"?>
<svg id="Layer_2" data-name="Layer 2" xmlns="http://www.w3.org/2000/svg" viewBox="0 0 690.58 431.44">
  <g id="Layer_1-2" data-name="Layer 1">
    <g>
      <path d="M67.43,101.15H33.85c-11.47,0-19.98-2.29-25.53-6.88C2.77,89.68,0,82.62,0,73.08V30.28C0,20.74,2.77,13.65,8.33,9.01c5.55-4.63,14.06-6.95,25.53-6.95h33.58c1.74,0,3,.39,3.78,1.17,.78,.78,1.17,2.04,1.17,3.78V23.67c0,1.74-.39,3.01-1.17,3.78s-2.04,1.17-3.78,1.17h-27.66c-2.84,0-4.95,.57-6.33,1.72-1.38,1.15-2.06,2.87-2.06,5.16v32.75c0,2.29,.69,3.97,2.06,5.02,1.38,1.06,3.49,1.58,6.33,1.58h27.66c1.74,0,3,.39,3.78,1.17,.78,.78,1.17,2.04,1.17,3.78v16.38c0,1.74-.39,3.01-1.17,3.78s-2.04,1.17-3.78,1.17Z"/>
      <path d="M171.2,75.14c0,4.22-.62,8.05-1.86,11.49s-3.44,6.38-6.61,8.81c-3.17,2.43-7.52,4.33-13.07,5.71-5.55,1.38-12.59,2.06-21.12,2.06s-15.6-.69-21.19-2.06c-5.6-1.38-9.98-3.28-13.14-5.71-3.17-2.43-5.37-5.37-6.61-8.81-1.24-3.44-1.86-7.27-1.86-11.49V28.21c0-4.22,.62-8.05,1.86-11.49,1.24-3.44,3.44-6.4,6.61-8.88,3.17-2.48,7.55-4.4,13.14-5.78,5.6-1.38,12.66-2.06,21.19-2.06s15.57,.69,21.12,2.06c5.55,1.38,9.91,3.3,13.07,5.78,3.17,2.48,5.37,5.44,6.61,8.88,1.24,3.44,1.86,7.27,1.86,11.49v46.93Zm-54.22-4.95c0,1.84,.69,3.37,2.06,4.61,1.38,1.24,4.54,1.86,9.5,1.86s8.12-.62,9.5-1.86c1.38-1.24,2.06-2.77,2.06-4.61V33.17c0-1.74-.69-3.23-2.06-4.47-1.38-1.24-4.54-1.86-9.5-1.86s-8.12,.62-9.5,1.86c-1.38,1.24-2.06,2.73-2.06,4.47v37.02Z"/>
      <path d="M234.64,101.15h-43.49c-1.74,0-3.01-.39-3.79-1.17-.78-.78-1.17-2.04-1.17-3.78v-16.1c0-1.74,.39-3,1.17-3.78s2.04-1.17,3.79-1.17h37.02c1.19,0,2.09-.39,2.68-1.17,.6-.78,.89-1.72,.89-2.82,0-1.56-.3-2.71-.89-3.44-.6-.73-1.49-1.15-2.68-1.24l-20.64-2.89c-6.42-.92-11.58-3.03-15.48-6.33-3.9-3.3-5.85-8.81-5.85-16.51v-14.45c0-7.8,2.52-13.78,7.57-17.96,5.04-4.17,12.02-6.26,20.92-6.26h38.53c1.74,0,3,.39,3.78,1.17,.78,.78,1.17,2.04,1.17,3.78V23.4c0,1.74-.39,3.01-1.17,3.78s-2.04,1.17-3.78,1.17h-32.07c-1.19,0-2.11,.39-2.75,1.17-.64,.78-.96,1.77-.96,2.96s.32,2.2,.96,3.03c.64,.83,1.56,1.29,2.75,1.38l20.5,2.75c6.42,.92,11.61,3.03,15.55,6.33,3.94,3.3,5.92,8.81,5.92,16.51v14.45c0,7.8-2.55,13.79-7.64,17.96-5.09,4.18-12.04,6.26-20.85,6.26Z"/>
      <path d="M304.42,101.15h-21.33c-1.74,0-3.01-.39-3.79-1.17-.78-.78-1.17-2.04-1.17-3.78V7.02c0-1.74,.39-3,1.17-3.78,.78-.78,2.04-1.17,3.79-1.17h42.11c12.48,0,21.01,2.48,25.6,7.43,4.59,4.95,6.88,11.42,6.88,19.4v17.62c0,7.98-2.29,14.45-6.88,19.4-4.59,4.95-13.12,7.43-25.6,7.43h-15.83v22.84c0,1.74-.39,3.01-1.17,3.78s-2.04,1.17-3.78,1.17Zm4.68-73.35v20.78h12.39c2.66,0,4.4-.69,5.23-2.06,.83-1.38,1.24-2.94,1.24-4.68v-7.29c0-1.74-.41-3.3-1.24-4.68-.83-1.38-2.57-2.06-5.23-2.06h-12.39Z"/>
      <path d="M446.99,101.15h-70.05c-1.74,0-3.01-.39-3.78-1.17-.78-.78-1.17-2.04-1.17-3.78V7.02c0-1.74,.39-3,1.17-3.78,.78-.78,2.04-1.17,3.78-1.17h21.33c1.74,0,3,.39,3.79,1.17,.78,.78,1.17,2.04,1.17,3.78V75.14h18.85v-22.29c0-1.74,.39-3,1.17-3.78,.78-.78,2.04-1.17,3.78-1.17h19.96c1.74,0,3,.39,3.78,1.17,.78,.78,1.17,2.04,1.17,3.78v43.35c0,1.74-.39,3.01-1.17,3.78s-2.04,1.17-3.78,1.17Z"/>
      <path d="M495.71,96.2c0,1.74-.39,3.01-1.17,3.78s-2.04,1.17-3.78,1.17h-20.23c-1.74,0-3.01-.39-3.79-1.17-.78-.78-1.17-2.04-1.17-3.78V59.86c0-2.75,.43-5.92,1.31-9.5,.87-3.58,2.22-7.75,4.06-12.52l11.97-31.24c.55-1.56,1.4-2.71,2.55-3.44,1.15-.73,2.64-1.1,4.47-1.1h37.02c1.74,0,3.19,.37,4.33,1.1,1.15,.74,2,1.88,2.55,3.44l11.97,31.24c1.83,4.77,3.19,8.95,4.06,12.52,.87,3.58,1.31,6.74,1.31,9.5v36.33c0,1.74-.39,3.01-1.17,3.78s-2.04,1.17-3.79,1.17h-20.78c-1.84,0-3.19-.39-4.06-1.17-.87-.78-1.31-2.04-1.31-3.78v-19.27h-24.36v19.27Zm7.84-65.23l-6.47,20.92h21.61l-6.47-20.92c-.37-.83-.76-1.42-1.17-1.79-.41-.37-.89-.55-1.45-.55h-3.44c-.55,0-1.03,.18-1.45,.55-.41,.37-.8,.96-1.17,1.79Z"/>
      <path d="M614.89,101.15h-22.29c-1.74,0-3.01-.39-3.79-1.17-.78-.78-1.17-2.04-1.17-3.78v-17.62l-21.06-28.21c-2.11-2.84-3.51-5.32-4.2-7.43-.69-2.11-1.03-5.27-1.03-9.5V7.02c0-1.74,.39-3,1.17-3.78,.78-.78,2.04-1.17,3.79-1.17h21.19c1.74,0,3,.39,3.78,1.17,.78,.78,1.17,2.04,1.17,3.78V29.59c0,.92,.04,1.88,.14,2.89,.09,1.01,.46,1.97,1.1,2.89l6.33,9.91c.46,.83,.94,1.42,1.44,1.79,.5,.37,1.12,.55,1.86,.55h1.38c.73,0,1.35-.18,1.86-.55,.5-.37,.99-.96,1.45-1.79l6.33-9.91c.64-.92,1.01-1.88,1.1-2.89,.09-1.01,.14-1.97,.14-2.89V7.02c0-1.74,.39-3,1.17-3.78,.78-.78,2.04-1.17,3.78-1.17h20.51c1.74,0,3,.39,3.78,1.17,.78,.78,1.17,2.04,1.17,3.78v26.42c0,4.22-.37,7.39-1.1,9.5-.74,2.11-2.11,4.59-4.13,7.43l-20.92,28.35v17.48c0,1.74-.39,3.01-1.17,3.78-.78,.78-2.04,1.17-3.79,1.17Z"/>
      <path d="M670.21,114.91h-10.6c-1.74,0-3.01-.39-3.78-1.17-.78-.78-1.17-2.04-1.17-3.78v-5.5c0-1.74,.39-3.01,1.17-3.78,.78-.78,2.04-1.17,3.78-1.17h9.5c1.19,0,2.11-.34,2.75-1.03,.64-.69,.96-1.63,.96-2.82v-2.06h-15c-1.74,0-3.01-.39-3.78-1.17-.78-.78-1.17-2.04-1.17-3.79v-20.37c0-1.74,.39-3,1.17-3.79,.78-.78,2.04-1.17,3.78-1.17h27.8c1.74,0,3,.39,3.78,1.17,.78,.78,1.17,2.04,1.17,3.79v25.87c0,6.97-1.86,12.18-5.57,15.62-3.72,3.44-8.65,5.16-14.79,5.16Z"/>
      <path d="M130.81,266.3h-43.49c-1.74,0-3.01-.39-3.78-1.17-.78-.78-1.17-2.04-1.17-3.78v-16.1c0-1.74,.39-3,1.17-3.79s2.04-1.17,3.78-1.17h37.02c1.19,0,2.09-.39,2.68-1.17,.6-.78,.89-1.72,.89-2.82,0-1.56-.3-2.71-.89-3.44-.6-.73-1.49-1.15-2.68-1.24l-20.64-2.89c-6.42-.92-11.58-3.03-15.48-6.33-3.9-3.3-5.85-8.81-5.85-16.51v-14.45c0-7.8,2.52-13.78,7.57-17.96,5.04-4.17,12.02-6.26,20.92-6.26h38.53c1.74,0,3,.39,3.79,1.17,.78,.78,1.17,2.04,1.17,3.79v16.38c0,1.74-.39,3.01-1.17,3.78-.78,.78-2.04,1.17-3.79,1.17h-32.07c-1.19,0-2.11,.39-2.75,1.17-.64,.78-.96,1.77-.96,2.96s.32,2.2,.96,3.03c.64,.83,1.56,1.29,2.75,1.38l20.51,2.75c6.42,.92,11.61,3.03,15.55,6.33,3.94,3.3,5.92,8.81,5.92,16.51v14.45c0,7.8-2.55,13.79-7.64,17.96-5.09,4.18-12.04,6.26-20.85,6.26Z"/>
      <path d="M200.58,266.3h-21.33c-1.74,0-3.01-.39-3.79-1.17-.78-.78-1.17-2.04-1.17-3.78v-89.18c0-1.74,.39-3,1.17-3.79,.78-.78,2.04-1.17,3.79-1.17h21.33c1.74,0,3,.39,3.78,1.17,.78,.78,1.17,2.04,1.17,3.79v29.86h22.98v-29.86c0-1.74,.39-3,1.17-3.79,.78-.78,2.04-1.17,3.78-1.17h21.33c1.74,0,3,.39,3.79,1.17,.78,.78,1.17,2.04,1.17,3.79v89.18c0,1.74-.39,3.01-1.17,3.78-.78,.78-2.04,1.17-3.79,1.17h-21.33c-1.74,0-3.01-.39-3.78-1.17-.78-.78-1.17-2.04-1.17-3.78v-30.55h-22.98v30.55c0,1.74-.39,3.01-1.17,3.78s-2.04,1.17-3.78,1.17Z"/>
      <path d="M306.82,261.34c0,1.74-.39,3.01-1.17,3.78s-2.04,1.17-3.78,1.17h-20.23c-1.74,0-3.01-.39-3.78-1.17-.78-.78-1.17-2.04-1.17-3.78v-36.33c0-2.75,.43-5.92,1.31-9.5,.87-3.58,2.22-7.75,4.06-12.52l11.97-31.24c.55-1.56,1.4-2.71,2.55-3.44,1.15-.73,2.64-1.1,4.47-1.1h37.02c1.74,0,3.19,.37,4.33,1.1,1.15,.74,2,1.88,2.55,3.44l11.97,31.24c1.83,4.77,3.19,8.95,4.06,12.52,.87,3.58,1.31,6.74,1.31,9.5v36.33c0,1.74-.39,3.01-1.17,3.78s-2.04,1.17-3.78,1.17h-20.78c-1.84,0-3.19-.39-4.06-1.17-.87-.78-1.31-2.04-1.31-3.78v-19.27h-24.36v19.27Zm7.84-65.23l-6.47,20.92h21.61l-6.47-20.92c-.37-.83-.76-1.42-1.17-1.79-.41-.37-.89-.55-1.45-.55h-3.44c-.55,0-1.03,.18-1.44,.55-.41,.37-.8,.96-1.17,1.79Z"/>
      <path d="M405.36,266.3h-21.19c-1.74,0-3.01-.39-3.78-1.17-.78-.78-1.17-2.04-1.17-3.78v-89.18c0-1.74,.39-3,1.17-3.79s2.04-1.17,3.78-1.17h45.83c10.27,0,17.36,2.13,21.26,6.4,3.9,4.27,5.85,9.79,5.85,16.58v6.33c0,3.85-.57,7.13-1.72,9.84-1.15,2.71-3.14,4.66-5.99,5.85,4.95,.55,8.97,2.57,12.04,6.06,3.07,3.49,4.61,8.12,4.61,13.9v29.18c0,1.74-.39,3.01-1.17,3.78-.78,.78-2.04,1.17-3.78,1.17h-21.33c-1.74,0-3.01-.39-3.78-1.17-.78-.78-1.17-2.04-1.17-3.78v-21.06c0-2.02-.39-3.51-1.17-4.47-.78-.96-2.13-1.45-4.06-1.45h-19.27v26.97c0,1.74-.39,3.01-1.17,3.78-.78,.78-2.04,1.17-3.79,1.17Zm4.96-74.31v17.62h10.32c2.38,0,3.99-.62,4.82-1.86,.83-1.24,1.24-2.77,1.24-4.61v-4.68c0-1.83-.41-3.37-1.24-4.61-.83-1.24-2.43-1.86-4.82-1.86h-10.32Z"/>
      <path d="M550.27,266.3h-63.86c-1.74,0-3.01-.39-3.79-1.17-.78-.78-1.17-2.04-1.17-3.78v-89.18c0-1.74,.39-3,1.17-3.79,.78-.78,2.04-1.17,3.79-1.17h63.86c1.74,0,3,.39,3.78,1.17,.78,.78,1.17,2.04,1.17,3.79v16.1c0,1.74-.39,3.01-1.17,3.78s-2.04,1.17-3.78,1.17h-37.98v10.6h26.84c1.74,0,3,.39,3.79,1.17,.78,.78,1.17,2.04,1.17,3.78v14.73c0,1.74-.39,3.01-1.17,3.78s-2.04,1.17-3.79,1.17h-26.84v11.84h37.98c1.74,0,3,.39,3.78,1.17,.78,.78,1.17,2.04,1.17,3.79v16.1c0,1.74-.39,3.01-1.17,3.78s-2.04,1.17-3.78,1.17Z"/>
      <path d="M586.88,280.06h-10.6c-1.74,0-3.01-.39-3.78-1.17-.78-.78-1.17-2.04-1.17-3.78v-5.5c0-1.74,.39-3.01,1.17-3.78,.78-.78,2.04-1.17,3.78-1.17h9.5c1.19,0,2.11-.34,2.75-1.03,.64-.69,.96-1.63,.96-2.82v-2.06h-15c-1.74,0-3.01-.39-3.78-1.17-.78-.78-1.17-2.04-1.17-3.78v-20.37c0-1.74,.39-3,1.17-3.78s2.04-1.17,3.78-1.17h27.8c1.74,0,3,.39,3.78,1.17,.78,.78,1.17,2.04,1.17,3.78v25.87c0,6.97-1.86,12.18-5.57,15.62-3.72,3.44-8.65,5.16-14.79,5.16Z"/>
      <path d="M245.24,332.35h20.51c1.74,0,3,.39,3.78,1.17,.78,.78,1.17,2.04,1.17,3.79v53.4c0,2.94-.12,5.67-.34,8.19-.23,2.52-.94,5.48-2.13,8.88l-6.88,18.72c-.46,1.38-1.12,2.55-2,3.51-.87,.96-2.04,1.45-3.51,1.45h-18.3c-1.47,0-2.8-.32-3.99-.96-1.19-.64-1.97-1.7-2.34-3.17l-6.33-22.43c-.28-.92-.62-1.54-1.03-1.86-.41-.32-.89-.48-1.45-.48h-1.24c-.55,0-1.03,.16-1.45,.48-.41,.32-.76,.94-1.03,1.86l-6.47,22.43c-.37,1.38-1.06,2.41-2.06,3.1-1.01,.69-2.25,1.03-3.72,1.03h-18.17c-1.47,0-2.73-.46-3.78-1.38-1.06-.92-1.81-2.11-2.27-3.58l-6.88-18.99c-1.19-3.39-1.91-6.35-2.13-8.88-.23-2.52-.34-5.25-.34-8.19v-53.12c0-1.74,.39-3,1.17-3.79,.78-.78,2.04-1.17,3.79-1.17h21.19c1.74,0,3,.39,3.78,1.17,.78,.78,1.17,2.04,1.17,3.79v50.64l7.98-17.34c.73-1.56,1.7-2.66,2.89-3.3,1.19-.64,2.66-.96,4.4-.96h5.78c1.74,0,3.21,.32,4.4,.96,1.19,.64,2.15,1.74,2.89,3.3l7.98,17.34v-50.64c0-1.74,.39-3,1.17-3.79s2.04-1.17,3.78-1.17Z"/>
      <path d="M291.2,431.44c-1.74,0-3.01-.39-3.78-1.17-.78-.78-1.17-2.04-1.17-3.78v-16.38c0-1.74,.39-3,1.17-3.78,.78-.78,2.04-1.17,3.78-1.17h13.62v-46.24h-13.62c-1.74,0-3.01-.39-3.78-1.17-.78-.78-1.17-2.04-1.17-3.79v-16.65c0-1.74,.39-3,1.17-3.79,.78-.78,2.04-1.17,3.78-1.17h58.63c1.74,0,3,.39,3.78,1.17,.78,.78,1.17,2.04,1.17,3.79v16.65c0,1.74-.39,3.01-1.17,3.79s-2.04,1.17-3.78,1.17h-13.35v46.24h13.35c1.74,0,3,.39,3.78,1.17,.78,.78,1.17,2.04,1.17,3.78v16.38c0,1.74-.39,3.01-1.17,3.78s-2.04,1.17-3.78,1.17h-58.63Z"/>
      <path d="M397.31,431.44h-20.64c-1.74,0-3.01-.39-3.79-1.17-.78-.78-1.17-2.04-1.17-3.78v-89.18c0-1.74,.39-3,1.17-3.79,.78-.78,2.04-1.17,3.79-1.17h14.31c1.74,0,3.23,.28,4.47,.83,1.24,.55,2.45,1.51,3.65,2.89l26.7,30.55v-29.31c0-1.74,.39-3,1.17-3.79,.78-.78,2.04-1.17,3.78-1.17h20.64c1.74,0,3,.39,3.78,1.17,.78,.78,1.17,2.04,1.17,3.79v89.18c0,1.74-.39,3.01-1.17,3.78s-2.04,1.17-3.78,1.17h-20.64c-1.74,0-3.01-.39-3.78-1.17-.78-.78-1.17-2.04-1.17-3.78v-16.93l-23.53-28.49v45.42c0,1.74-.39,3.01-1.17,3.78-.78,.78-2.04,1.17-3.78,1.17Z"/>
      <path d="M505.75,395.38h-21.33c-1.74,0-3.01-.39-3.78-1.17-.78-.78-1.22-2.04-1.31-3.78l-2.06-53.12c-.09-1.74,.23-3,.96-3.79,.73-.78,1.97-1.17,3.72-1.17h26.29c1.74,0,2.98,.39,3.72,1.17,.73,.78,1.05,2.04,.96,3.79l-1.93,53.12c-.09,1.74-.55,3.01-1.38,3.78-.83,.78-2.11,1.17-3.85,1.17Zm2.06,36.06h-25.32c-1.74,0-3.01-.39-3.78-1.17-.78-.78-1.17-2.04-1.17-3.78v-18.03c0-1.74,.39-3,1.17-3.79,.78-.78,2.04-1.17,3.78-1.17h25.32c1.74,0,3,.39,3.79,1.17,.78,.78,1.17,2.04,1.17,3.79v18.03c0,1.74-.39,3.01-1.17,3.78-.78,.78-2.04,1.17-3.79,1.17Z"/>
    </g>
  </g>
</svg>