<?xml version="1.0" encoding="UTF-8"?>
<svg id="Layer_2" data-name="Layer 2" xmlns="http://www.w3.org/2000/svg" xmlns:xlink="http://www.w3.org/1999/xlink" viewBox="0 0 634 125">
  <defs>
    <style>
      .cls-1 {
        fill: url(#linear-gradient);
        filter: url(#drop-shadow-1);
      }
    </style>
    <linearGradient id="linear-gradient" x1="310.14" y1="102.85" x2="310.14" y2="8.25" gradientUnits="userSpaceOnUse">
      <stop offset="0" stop-color="#1bb8d2"/>
      <stop offset="1" stop-color="#83d1da"/>
    </linearGradient>
    <filter id="drop-shadow-1" filterUnits="userSpaceOnUse">
      <feOffset dx="7" dy="7"/>
      <feGaussianBlur result="blur" stdDeviation="5"/>
      <feFlood flood-color="#000" flood-opacity=".75"/>
      <feComposite in2="blur" operator="in"/>
      <feComposite in="SourceGraphic"/>
    </filter>
  </defs>
  <g id="Layer_1-2" data-name="Layer 1">
    <g>
      <rect class="cls-1" x="9" y="8.25" width="602.28" height="94.6" rx="47.3" ry="47.3"/>
      <g>
        <path d="M196.61,89.65h-28.26c-1.13,0-1.95-.25-2.46-.76-.51-.51-.76-1.33-.76-2.46v-10.46c0-1.13,.25-1.95,.76-2.46s1.33-.76,2.46-.76h24.06c.77,0,1.36-.25,1.74-.76,.39-.51,.58-1.12,.58-1.83,0-1.01-.19-1.76-.58-2.24-.39-.48-.97-.74-1.74-.8l-13.41-1.88c-4.17-.59-7.53-1.97-10.06-4.11-2.54-2.15-3.8-5.72-3.8-10.73v-9.39c0-5.07,1.64-8.96,4.92-11.67,3.28-2.71,7.81-4.07,13.59-4.07h25.04c1.13,0,1.95,.25,2.46,.76,.51,.51,.76,1.33,.76,2.46v10.64c0,1.13-.25,1.95-.76,2.46-.51,.51-1.33,.76-2.46,.76h-20.84c-.78,0-1.37,.25-1.79,.76-.42,.51-.63,1.15-.63,1.92s.21,1.43,.63,1.97,1.01,.84,1.79,.89l13.32,1.79c4.17,.6,7.54,1.97,10.1,4.11,2.56,2.15,3.85,5.72,3.85,10.73v9.39c0,5.07-1.65,8.96-4.96,11.67-3.31,2.71-7.83,4.07-13.55,4.07Z"/>
        <path d="M254.38,89.65h-14.49c-1.13,0-1.95-.25-2.46-.76-.51-.51-.76-1.33-.76-2.46V42.52h-13.15c-1.13,0-1.95-.25-2.46-.76-.51-.51-.76-1.33-.76-2.46v-10.82c0-1.13,.25-1.95,.76-2.46s1.33-.76,2.46-.76h47.22c1.13,0,1.95,.25,2.46,.76,.51,.51,.76,1.33,.76,2.46v10.82c0,1.13-.25,1.95-.76,2.46-.51,.51-1.33,.76-2.46,.76h-13.14v43.91c0,1.13-.25,1.95-.76,2.46s-1.33,.76-2.46,.76Z"/>
        <path d="M297.3,86.43c0,1.13-.25,1.95-.76,2.46-.51,.51-1.33,.76-2.46,.76h-13.14c-1.13,0-1.95-.25-2.46-.76-.51-.51-.76-1.33-.76-2.46v-23.61c0-1.79,.28-3.85,.85-6.17,.57-2.33,1.44-5.04,2.64-8.14l7.78-20.3c.36-1.01,.91-1.76,1.65-2.24,.75-.48,1.71-.72,2.91-.72h24.06c1.13,0,2.07,.24,2.82,.72,.74,.48,1.3,1.22,1.65,2.24l7.78,20.3c1.19,3.1,2.07,5.81,2.64,8.14,.57,2.32,.85,4.38,.85,6.17v23.61c0,1.13-.25,1.95-.76,2.46-.51,.51-1.33,.76-2.46,.76h-13.5c-1.19,0-2.07-.25-2.64-.76-.57-.51-.85-1.33-.85-2.46v-12.52h-15.83v12.52Zm5.1-42.39l-4.2,13.59h14.04l-4.2-13.59c-.24-.54-.49-.92-.76-1.16-.27-.24-.58-.36-.94-.36h-2.24c-.36,0-.67,.12-.94,.36s-.52,.63-.76,1.16Z"/>
        <path d="M361.33,89.65h-13.77c-1.13,0-1.95-.25-2.46-.76-.51-.51-.76-1.33-.76-2.46V28.48c0-1.13,.25-1.95,.76-2.46,.51-.51,1.33-.76,2.46-.76h29.78c6.68,0,11.28,1.39,13.82,4.16,2.53,2.77,3.8,6.37,3.8,10.78v4.11c0,2.5-.37,4.64-1.12,6.39-.75,1.76-2.04,3.03-3.89,3.8,3.22,.36,5.83,1.67,7.83,3.93,2,2.27,3,5.28,3,9.03v18.96c0,1.13-.25,1.95-.76,2.46s-1.33,.76-2.46,.76h-13.86c-1.13,0-1.95-.25-2.46-.76-.51-.51-.76-1.33-.76-2.46v-13.68c0-1.31-.25-2.28-.76-2.91-.51-.63-1.39-.94-2.64-.94h-12.52v17.53c0,1.13-.25,1.95-.76,2.46s-1.33,.76-2.46,.76Zm3.22-48.29v11.45h6.71c1.55,0,2.59-.4,3.13-1.21s.8-1.8,.8-3v-3.04c0-1.19-.27-2.19-.8-3s-1.58-1.21-3.13-1.21h-6.71Z"/>
        <path d="M438.5,89.65h-14.49c-1.13,0-1.95-.25-2.46-.76-.51-.51-.76-1.33-.76-2.46V42.52h-13.14c-1.13,0-1.95-.25-2.46-.76-.51-.51-.76-1.33-.76-2.46v-10.82c0-1.13,.25-1.95,.76-2.46s1.33-.76,2.46-.76h47.22c1.13,0,1.95,.25,2.46,.76,.51,.51,.76,1.33,.76,2.46v10.82c0,1.13-.25,1.95-.76,2.46-.51,.51-1.33,.76-2.46,.76h-13.15v43.91c0,1.13-.25,1.95-.76,2.46s-1.33,.76-2.46,.76Z"/>
      </g>
    </g>
  </g>
</svg>