<?xml version="1.0" encoding="UTF-8"?>
<svg id="Layer_2" data-name="Layer 2" xmlns="http://www.w3.org/2000/svg" viewBox="0 0 587.04 184.1">
  <g id="Layer_1-2" data-name="Layer 1">
    <g>
      <path d="M30.11,69.93H15.37c-1.21,0-2.08-.27-2.62-.81-.54-.54-.81-1.41-.81-2.62V4.85c0-1.2,.27-2.08,.81-2.62,.54-.54,1.41-.81,2.62-.81h29.11c8.63,0,14.52,1.71,17.7,5.14,3.17,3.43,4.76,7.9,4.76,13.42v12.18c0,5.52-1.59,9.99-4.76,13.42-3.17,3.43-9.07,5.14-17.7,5.14h-10.94v15.79c0,1.21-.27,2.08-.81,2.62-.54,.54-1.41,.81-2.62,.81Zm3.23-50.71v14.37h8.56c1.84,0,3.04-.48,3.62-1.43s.86-2.03,.86-3.23v-5.04c0-1.2-.29-2.28-.86-3.23-.57-.95-1.78-1.43-3.62-1.43h-8.56Z"/>
      <path d="M78.73,69.93c-1.21,0-2.08-.27-2.62-.81-.54-.54-.81-1.41-.81-2.62v-11.32c0-1.2,.27-2.08,.81-2.62,.54-.54,1.41-.81,2.62-.81h9.42V19.79h-9.42c-1.21,0-2.08-.27-2.62-.81-.54-.54-.81-1.41-.81-2.62V4.85c0-1.2,.27-2.08,.81-2.62s1.41-.81,2.62-.81h40.53c1.2,0,2.08,.27,2.62,.81,.54,.54,.81,1.41,.81,2.62v11.51c0,1.21-.27,2.08-.81,2.62s-1.41,.81-2.62,.81h-9.23v31.97h9.23c1.2,0,2.08,.27,2.62,.81,.54,.54,.81,1.41,.81,2.62v11.32c0,1.21-.27,2.08-.81,2.62s-1.41,.81-2.62,.81h-40.53Z"/>
      <path d="M179.96,69.93h-23.21c-7.93,0-13.81-1.58-17.65-4.76-3.84-3.17-5.76-8.05-5.76-14.65V20.93c0-6.6,1.92-11.5,5.76-14.7,3.84-3.2,9.72-4.8,17.65-4.8h23.21c1.2,0,2.08,.27,2.62,.81,.54,.54,.81,1.41,.81,2.62v11.51c0,1.21-.27,2.08-.81,2.62-.54,.54-1.41,.81-2.62,.81h-19.12c-1.97,0-3.42,.4-4.38,1.19-.95,.79-1.43,1.98-1.43,3.57v22.64c0,1.59,.48,2.74,1.43,3.47,.95,.73,2.41,1.09,4.38,1.09h19.12c1.2,0,2.08,.27,2.62,.81,.54,.54,.81,1.41,.81,2.62v11.32c0,1.21-.27,2.08-.81,2.62-.54,.54-1.41,.81-2.62,.81Z"/>
      <path d="M212.31,69.93h-14.75c-1.21,0-2.08-.27-2.62-.81-.54-.54-.81-1.41-.81-2.62V4.85c0-1.2,.27-2.08,.81-2.62,.54-.54,1.41-.81,2.62-.81h14.75c1.2,0,2.08,.27,2.62,.81,.54,.54,.81,1.41,.81,2.62V26.74h3.81l9.8-22.17c.44-1.14,1.05-1.95,1.81-2.43,.76-.48,1.74-.71,2.95-.71h14.65c1.08,0,1.81,.27,2.19,.81,.38,.54,.35,1.32-.1,2.33l-9.7,22.17c3.55,.19,6.39,1.44,8.52,3.76,2.12,2.32,3.19,5.38,3.19,9.18v26.83c0,1.21-.27,2.08-.81,2.62-.54,.54-1.41,.81-2.62,.81h-14.65c-1.21,0-2.08-.27-2.62-.81-.54-.54-.81-1.41-.81-2.62v-18.55c0-1.01-.25-1.81-.76-2.38-.51-.57-1.27-.86-2.28-.86h-12.56v21.79c0,1.21-.27,2.08-.81,2.62-.54,.54-1.41,.81-2.62,.81Z"/>
      <path d="M321.25,69.93h-15.41c-1.21,0-2.08-.27-2.62-.81-.54-.54-.81-1.41-.81-2.62v-12.18l-14.56-19.5c-1.46-1.97-2.43-3.68-2.9-5.14-.48-1.46-.71-3.65-.71-6.56V4.85c0-1.2,.27-2.08,.81-2.62,.54-.54,1.41-.81,2.62-.81h14.65c1.2,0,2.08,.27,2.62,.81,.54,.54,.81,1.41,.81,2.62v15.6c0,.63,.03,1.3,.09,2,.06,.7,.32,1.36,.76,2l4.38,6.85c.32,.57,.65,.98,1,1.24,.35,.25,.78,.38,1.28,.38h.95c.51,0,.93-.13,1.28-.38,.35-.25,.68-.67,1-1.24l4.38-6.85c.44-.63,.7-1.3,.76-2,.06-.7,.09-1.36,.09-2V4.85c0-1.2,.27-2.08,.81-2.62s1.41-.81,2.62-.81h14.18c1.2,0,2.08,.27,2.62,.81,.54,.54,.81,1.41,.81,2.62V23.12c0,2.92-.25,5.11-.76,6.56-.51,1.46-1.46,3.17-2.85,5.14l-14.46,19.6v12.08c0,1.21-.27,2.08-.81,2.62-.54,.54-1.41,.81-2.62,.81Z"/>
      <path d="M411.64,51.95c0,2.92-.43,5.57-1.28,7.94-.86,2.38-2.38,4.41-4.57,6.09-2.19,1.68-5.2,3-9.04,3.95-3.84,.95-8.71,1.43-14.6,1.43s-10.78-.48-14.65-1.43c-3.87-.95-6.9-2.27-9.09-3.95-2.19-1.68-3.71-3.71-4.57-6.09s-1.28-5.03-1.28-7.94V19.5c0-2.92,.43-5.57,1.28-7.94s2.38-4.42,4.57-6.14c2.19-1.71,5.22-3.04,9.09-4,3.87-.95,8.75-1.43,14.65-1.43s10.77,.48,14.6,1.43c3.84,.95,6.85,2.28,9.04,4s3.71,3.76,4.57,6.14c.86,2.38,1.28,5.03,1.28,7.94V51.95Zm-37.49-3.43c0,1.27,.48,2.33,1.43,3.19,.95,.86,3.14,1.28,6.57,1.28s5.61-.43,6.56-1.28c.95-.86,1.43-1.92,1.43-3.19V22.93c0-1.2-.48-2.24-1.43-3.09-.95-.86-3.14-1.28-6.56-1.28s-5.61,.43-6.57,1.28c-.95,.86-1.43,1.89-1.43,3.09v25.59Z"/>
      <path d="M482.04,51.95c0,2.92-.43,5.57-1.28,7.94s-2.38,4.41-4.57,6.09c-2.19,1.68-5.18,3-8.99,3.95s-8.66,1.43-14.56,1.43-10.75-.48-14.56-1.43-6.8-2.27-8.99-3.95c-2.19-1.68-3.71-3.71-4.57-6.09-.86-2.38-1.29-5.03-1.29-7.94V4.85c0-1.2,.27-2.08,.81-2.62,.54-.54,1.41-.81,2.62-.81h14.94c1.2,0,2.08,.27,2.62,.81,.54,.54,.81,1.41,.81,2.62V48.24c0,1.27,.48,2.33,1.43,3.19,.95,.86,3.08,1.28,6.37,1.28s5.52-.43,6.47-1.28,1.43-1.92,1.43-3.19V4.85c0-1.2,.27-2.08,.81-2.62s1.41-.81,2.62-.81h14.46c1.2,0,2.08,.27,2.62,.81,.54,.54,.81,1.41,.81,2.62V51.95Z"/>
      <path d="M512.78,69.93h-14.65c-1.21,0-2.08-.27-2.62-.81-.54-.54-.81-1.41-.81-2.62V4.85c0-1.2,.27-2.08,.81-2.62s1.41-.81,2.62-.81h31.68c7.1,0,12,1.47,14.7,4.42,2.7,2.95,4.04,6.77,4.04,11.46v4.38c0,2.66-.4,4.93-1.19,6.8-.79,1.87-2.17,3.22-4.14,4.04,3.43,.38,6.2,1.78,8.33,4.19,2.12,2.41,3.19,5.61,3.19,9.61v20.17c0,1.21-.27,2.08-.81,2.62-.54,.54-1.41,.81-2.62,.81h-14.75c-1.21,0-2.08-.27-2.62-.81-.54-.54-.81-1.41-.81-2.62v-14.56c0-1.39-.27-2.43-.81-3.09-.54-.67-1.47-1-2.81-1h-13.32v18.65c0,1.21-.27,2.08-.81,2.62-.54,.54-1.41,.81-2.62,.81Zm3.42-51.38v12.18h7.14c1.65,0,2.76-.43,3.33-1.28,.57-.86,.86-1.92,.86-3.19v-3.23c0-1.27-.29-2.33-.86-3.19-.57-.86-1.68-1.28-3.33-1.28h-7.14Z"/>
      <path d="M46.62,184.1H23.41c-7.93,0-13.81-1.58-17.65-4.76-3.84-3.17-5.76-8.05-5.76-14.65v-29.59c0-6.6,1.92-11.5,5.76-14.7,3.84-3.2,9.72-4.8,17.65-4.8h23.21c1.2,0,2.08,.27,2.62,.81,.54,.54,.81,1.41,.81,2.62v11.51c0,1.21-.27,2.08-.81,2.62-.54,.54-1.41,.81-2.62,.81H27.5c-1.97,0-3.42,.4-4.38,1.19-.95,.79-1.43,1.98-1.43,3.57v22.64c0,1.59,.48,2.74,1.43,3.47,.95,.73,2.41,1.09,4.38,1.09h19.12c1.2,0,2.08,.27,2.62,.81,.54,.54,.81,1.41,.81,2.62v11.32c0,1.21-.27,2.08-.81,2.62-.54,.54-1.41,.81-2.62,.81Z"/>
      <path d="M78.97,184.1h-14.75c-1.21,0-2.08-.27-2.62-.81-.54-.54-.81-1.41-.81-2.62v-61.65c0-1.2,.27-2.08,.81-2.62,.54-.54,1.41-.81,2.62-.81h14.75c1.2,0,2.08,.27,2.62,.81,.54,.54,.81,1.41,.81,2.62v20.65h15.89v-20.65c0-1.2,.27-2.08,.81-2.62s1.41-.81,2.62-.81h14.75c1.2,0,2.08,.27,2.62,.81,.54,.54,.81,1.41,.81,2.62v61.65c0,1.21-.27,2.08-.81,2.62s-1.41,.81-2.62,.81h-14.75c-1.21,0-2.08-.27-2.62-.81-.54-.54-.81-1.41-.81-2.62v-21.12h-15.89v21.12c0,1.21-.27,2.08-.81,2.62-.54,.54-1.41,.81-2.62,.81Z"/>
      <path d="M152.42,180.68c0,1.21-.27,2.08-.81,2.62s-1.41,.81-2.62,.81h-13.99c-1.21,0-2.08-.27-2.62-.81-.54-.54-.81-1.41-.81-2.62v-25.12c0-1.9,.3-4.09,.9-6.56,.6-2.47,1.54-5.36,2.81-8.66l8.28-21.6c.38-1.08,.97-1.87,1.76-2.38,.79-.51,1.82-.76,3.09-.76h25.59c1.2,0,2.2,.25,3,.76,.79,.51,1.38,1.3,1.76,2.38l8.28,21.6c1.27,3.3,2.2,6.18,2.81,8.66,.6,2.47,.9,4.66,.9,6.56v25.12c0,1.21-.27,2.08-.81,2.62s-1.41,.81-2.62,.81h-14.37c-1.27,0-2.21-.27-2.81-.81-.6-.54-.9-1.41-.9-2.62v-13.32h-16.84v13.32Zm5.42-45.1l-4.47,14.46h14.94l-4.47-14.46c-.25-.57-.52-.98-.81-1.24-.29-.25-.62-.38-1-.38h-2.38c-.38,0-.71,.13-1,.38-.29,.25-.56,.67-.81,1.24Z"/>
      <path d="M220.54,184.1h-14.65c-1.21,0-2.08-.27-2.62-.81-.54-.54-.81-1.41-.81-2.62v-61.65c0-1.2,.27-2.08,.81-2.62,.54-.54,1.41-.81,2.62-.81h31.68c7.1,0,12,1.47,14.7,4.42,2.7,2.95,4.04,6.77,4.04,11.46v4.38c0,2.66-.4,4.93-1.19,6.8-.79,1.87-2.17,3.22-4.14,4.04,3.43,.38,6.2,1.78,8.33,4.19,2.12,2.41,3.19,5.61,3.19,9.61v20.17c0,1.21-.27,2.08-.81,2.62-.54,.54-1.41,.81-2.62,.81h-14.75c-1.21,0-2.08-.27-2.62-.81-.54-.54-.81-1.41-.81-2.62v-14.56c0-1.39-.27-2.43-.81-3.09-.54-.67-1.48-1-2.81-1h-13.32v18.65c0,1.21-.27,2.08-.81,2.62-.54,.54-1.41,.81-2.62,.81Zm3.43-51.38v12.18h7.14c1.65,0,2.76-.43,3.33-1.28,.57-.86,.86-1.92,.86-3.19v-3.23c0-1.27-.29-2.33-.86-3.19-.57-.86-1.68-1.28-3.33-1.28h-7.14Z"/>
      <path d="M292.57,180.68c0,1.21-.27,2.08-.81,2.62-.54,.54-1.41,.81-2.62,.81h-13.99c-1.21,0-2.08-.27-2.62-.81-.54-.54-.81-1.41-.81-2.62v-25.12c0-1.9,.3-4.09,.9-6.56,.6-2.47,1.54-5.36,2.81-8.66l8.28-21.6c.38-1.08,.96-1.87,1.76-2.38,.79-.51,1.82-.76,3.09-.76h25.59c1.21,0,2.2,.25,3,.76,.79,.51,1.38,1.3,1.76,2.38l8.28,21.6c1.27,3.3,2.2,6.18,2.81,8.66,.6,2.47,.9,4.66,.9,6.56v25.12c0,1.21-.27,2.08-.81,2.62-.54,.54-1.41,.81-2.62,.81h-14.37c-1.27,0-2.21-.27-2.81-.81-.6-.54-.9-1.41-.9-2.62v-13.32h-16.84v13.32Zm5.42-45.1l-4.47,14.46h14.94l-4.47-14.46c-.26-.57-.52-.98-.81-1.24-.29-.25-.62-.38-1-.38h-2.38c-.38,0-.71,.13-1,.38-.29,.25-.56,.67-.81,1.24Z"/>
      <path d="M388.19,184.1h-23.21c-7.93,0-13.81-1.58-17.65-4.76-3.84-3.17-5.76-8.05-5.76-14.65v-29.59c0-6.6,1.92-11.5,5.76-14.7,3.84-3.2,9.72-4.8,17.65-4.8h23.21c1.2,0,2.08,.27,2.62,.81,.54,.54,.81,1.41,.81,2.62v11.51c0,1.21-.27,2.08-.81,2.62-.54,.54-1.41,.81-2.62,.81h-19.12c-1.97,0-3.42,.4-4.38,1.19-.95,.79-1.43,1.98-1.43,3.57v22.64c0,1.59,.48,2.74,1.43,3.47,.95,.73,2.41,1.09,4.38,1.09h19.12c1.2,0,2.08,.27,2.62,.81,.54,.54,.81,1.41,.81,2.62v11.32c0,1.21-.27,2.08-.81,2.62-.54,.54-1.41,.81-2.62,.81Z"/>
      <path d="M434.71,184.1h-15.41c-1.21,0-2.08-.27-2.62-.81-.54-.54-.81-1.41-.81-2.62v-46.72h-13.99c-1.21,0-2.08-.27-2.62-.81-.54-.54-.81-1.41-.81-2.62v-11.51c0-1.2,.27-2.08,.81-2.62s1.41-.81,2.62-.81h50.24c1.2,0,2.08,.27,2.62,.81,.54,.54,.81,1.41,.81,2.62v11.51c0,1.21-.27,2.08-.81,2.62-.54,.54-1.41,.81-2.62,.81h-13.99v46.72c0,1.21-.27,2.08-.81,2.62-.54,.54-1.41,.81-2.62,.81Z"/>
      <path d="M512.35,184.1h-44.15c-1.21,0-2.08-.27-2.62-.81-.54-.54-.81-1.41-.81-2.62v-61.65c0-1.2,.27-2.08,.81-2.62s1.41-.81,2.62-.81h44.15c1.2,0,2.08,.27,2.62,.81,.54,.54,.81,1.41,.81,2.62v11.13c0,1.21-.27,2.08-.81,2.62-.54,.54-1.41,.81-2.62,.81h-26.26v7.33h18.55c1.2,0,2.08,.27,2.62,.81,.54,.54,.81,1.41,.81,2.62v10.18c0,1.21-.27,2.08-.81,2.62-.54,.54-1.41,.81-2.62,.81h-18.55v8.18h26.26c1.2,0,2.08,.27,2.62,.81,.54,.54,.81,1.41,.81,2.62v11.13c0,1.21-.27,2.08-.81,2.62-.54,.54-1.41,.81-2.62,.81Z"/>
      <path d="M545.08,184.1h-14.65c-1.21,0-2.08-.27-2.62-.81-.54-.54-.81-1.41-.81-2.62v-61.65c0-1.2,.27-2.08,.81-2.62s1.41-.81,2.62-.81h31.68c7.1,0,12,1.47,14.7,4.42,2.7,2.95,4.04,6.77,4.04,11.46v4.38c0,2.66-.4,4.93-1.19,6.8-.79,1.87-2.17,3.22-4.14,4.04,3.43,.38,6.2,1.78,8.33,4.19,2.12,2.41,3.19,5.61,3.19,9.61v20.17c0,1.21-.27,2.08-.81,2.62-.54,.54-1.41,.81-2.62,.81h-14.75c-1.21,0-2.08-.27-2.62-.81-.54-.54-.81-1.41-.81-2.62v-14.56c0-1.39-.27-2.43-.81-3.09-.54-.67-1.47-1-2.81-1h-13.32v18.65c0,1.21-.27,2.08-.81,2.62-.54,.54-1.41,.81-2.62,.81Zm3.42-51.38v12.18h7.14c1.65,0,2.76-.43,3.33-1.28,.57-.86,.86-1.92,.86-3.19v-3.23c0-1.27-.29-2.33-.86-3.19-.57-.86-1.68-1.28-3.33-1.28h-7.14Z"/>
    </g>
  </g>
</svg>