<?xml version="1.0" encoding="UTF-8"?>
<svg id="Layer_2" data-name="Layer 2" xmlns="http://www.w3.org/2000/svg" xmlns:xlink="http://www.w3.org/1999/xlink" viewBox="0 0 633 126">
  <defs>
    <style>
      .cls-1 {
        fill: url(#linear-gradient);
        filter: url(#drop-shadow-1);
      }
    </style>
    <linearGradient id="linear-gradient" x1="309.75" y1="103.4" x2="309.75" y2="8.8" gradientUnits="userSpaceOnUse">
      <stop offset="0" stop-color="#1bb8d2"/>
      <stop offset="1" stop-color="#83d1da"/>
    </linearGradient>
    <filter id="drop-shadow-1" filterUnits="userSpaceOnUse">
      <feOffset dx="7" dy="7"/>
      <feGaussianBlur result="blur" stdDeviation="5"/>
      <feFlood flood-color="#000" flood-opacity=".75"/>
      <feComposite in2="blur" operator="in"/>
      <feComposite in="SourceGraphic"/>
    </filter>
  </defs>
  <g id="Layer_1-2" data-name="Layer 1">
    <g>
      <rect class="cls-1" x="8.61" y="8.8" width="602.28" height="94.6" rx="47.3" ry="47.3"/>
      <g>
        <path d="M162.64,90.19h-28.26c-1.13,0-1.95-.25-2.46-.76-.51-.51-.76-1.33-.76-2.46v-10.46c0-1.13,.25-1.95,.76-2.46,.51-.51,1.33-.76,2.46-.76h24.06c.77,0,1.36-.25,1.74-.76,.39-.51,.58-1.12,.58-1.83,0-1.01-.19-1.76-.58-2.24-.39-.48-.97-.74-1.74-.8l-13.41-1.88c-4.17-.59-7.53-1.97-10.06-4.11-2.53-2.15-3.8-5.72-3.8-10.73v-9.39c0-5.07,1.64-8.96,4.92-11.67,3.28-2.71,7.81-4.07,13.59-4.07h25.04c1.13,0,1.95,.25,2.46,.76,.51,.51,.76,1.33,.76,2.46v10.64c0,1.13-.25,1.95-.76,2.46-.51,.51-1.33,.76-2.46,.76h-20.84c-.78,0-1.37,.25-1.79,.76-.42,.51-.63,1.15-.63,1.92s.21,1.43,.63,1.97c.42,.54,1.01,.84,1.79,.89l13.32,1.79c4.17,.6,7.54,1.97,10.1,4.11,2.56,2.15,3.85,5.72,3.85,10.73v9.39c0,5.07-1.65,8.96-4.96,11.67-3.31,2.71-7.82,4.07-13.55,4.07Z"/>
        <path d="M235.61,90.19h-41.49c-1.13,0-1.95-.25-2.46-.76-.51-.51-.76-1.33-.76-2.46V29.03c0-1.13,.25-1.95,.76-2.46s1.33-.76,2.46-.76h41.49c1.13,0,1.95,.25,2.46,.76,.51,.51,.76,1.33,.76,2.46v10.46c0,1.13-.25,1.95-.76,2.46s-1.33,.76-2.46,.76h-24.68v6.89h17.44c1.13,0,1.95,.25,2.46,.76,.51,.51,.76,1.33,.76,2.46v9.57c0,1.13-.25,1.95-.76,2.46-.51,.51-1.33,.76-2.46,.76h-17.44v7.69h24.68c1.13,0,1.95,.25,2.46,.76,.51,.51,.76,1.33,.76,2.46v10.46c0,1.13-.25,1.95-.76,2.46s-1.33,.76-2.46,.76Z"/>
        <path d="M298.11,90.19h-45.52c-1.13,0-1.95-.25-2.46-.76-.51-.51-.76-1.33-.76-2.46V29.03c0-1.13,.25-1.95,.76-2.46s1.33-.76,2.46-.76h13.86c1.13,0,1.95,.25,2.46,.76,.51,.51,.76,1.33,.76,2.46v44.26h12.25v-14.49c0-1.13,.25-1.95,.76-2.46s1.33-.76,2.46-.76h12.97c1.13,0,1.95,.25,2.46,.76,.51,.51,.76,1.33,.76,2.46v28.17c0,1.13-.25,1.95-.76,2.46s-1.33,.76-2.46,.76Z"/>
        <path d="M356.24,90.19h-41.49c-1.13,0-1.95-.25-2.46-.76-.51-.51-.76-1.33-.76-2.46V29.03c0-1.13,.25-1.95,.76-2.46,.51-.51,1.33-.76,2.46-.76h41.49c1.13,0,1.95,.25,2.46,.76,.51,.51,.76,1.33,.76,2.46v10.46c0,1.13-.25,1.95-.76,2.46-.51,.51-1.33,.76-2.46,.76h-24.68v6.89h17.44c1.13,0,1.95,.25,2.46,.76,.5,.51,.76,1.33,.76,2.46v9.57c0,1.13-.25,1.95-.76,2.46-.51,.51-1.33,.76-2.46,.76h-17.44v7.69h24.68c1.13,0,1.95,.25,2.46,.76,.51,.51,.76,1.33,.76,2.46v10.46c0,1.13-.25,1.95-.76,2.46-.51,.51-1.33,.76-2.46,.76Z"/>
        <path d="M412.4,90.19h-21.82c-7.45,0-12.98-1.49-16.59-4.47-3.61-2.98-5.41-7.57-5.41-13.77v-27.81c0-6.2,1.8-10.8,5.41-13.82,3.61-3.01,9.14-4.52,16.59-4.52h21.82c1.13,0,1.95,.25,2.46,.76,.51,.51,.76,1.33,.76,2.46v10.82c0,1.13-.25,1.95-.76,2.46-.51,.51-1.33,.76-2.46,.76h-17.97c-1.85,0-3.22,.37-4.11,1.12-.89,.75-1.34,1.86-1.34,3.35v21.28c0,1.49,.45,2.58,1.34,3.26,.89,.69,2.26,1.03,4.11,1.03h17.97c1.13,0,1.95,.25,2.46,.76,.51,.51,.76,1.33,.76,2.46v10.64c0,1.13-.25,1.95-.76,2.46-.51,.51-1.33,.76-2.46,.76Z"/>
        <path d="M456.13,90.19h-14.49c-1.13,0-1.95-.25-2.46-.76-.51-.51-.76-1.33-.76-2.46V43.07h-13.14c-1.13,0-1.95-.25-2.46-.76-.51-.51-.76-1.33-.76-2.46v-10.82c0-1.13,.25-1.95,.76-2.46s1.33-.76,2.46-.76h47.22c1.13,0,1.95,.25,2.46,.76,.51,.51,.76,1.33,.76,2.46v10.82c0,1.13-.25,1.95-.76,2.46-.51,.51-1.33,.76-2.46,.76h-13.15v43.91c0,1.13-.25,1.95-.76,2.46s-1.33,.76-2.46,.76Z"/>
      </g>
    </g>
  </g>
</svg>