<?xml version="1.0" encoding="UTF-8"?>
<svg id="Layer_2" data-name="Layer 2" xmlns="http://www.w3.org/2000/svg" xmlns:xlink="http://www.w3.org/1999/xlink" viewBox="0 0 633 125">
  <defs>
    <style>
      .cls-1 {
        fill: url(#linear-gradient);
        filter: url(#drop-shadow-1);
      }
    </style>
    <linearGradient id="linear-gradient" x1="309.76" y1="102.93" x2="309.76" y2="8.33" gradientUnits="userSpaceOnUse">
      <stop offset="0" stop-color="#1bb8d2"/>
      <stop offset="1" stop-color="#83d1da"/>
    </linearGradient>
    <filter id="drop-shadow-1" filterUnits="userSpaceOnUse">
      <feOffset dx="7" dy="7"/>
      <feGaussianBlur result="blur" stdDeviation="5"/>
      <feFlood flood-color="#000" flood-opacity=".75"/>
      <feComposite in2="blur" operator="in"/>
      <feComposite in="SourceGraphic"/>
    </filter>
  </defs>
  <g id="Layer_1-2" data-name="Layer 1">
    <g>
      <rect class="cls-1" x="8.62" y="8.33" width="602.28" height="94.6" rx="47.3" ry="47.3"/>
      <g>
        <path d="M138.22,88.8h-21.82c-7.45,0-12.98-1.49-16.59-4.47-3.61-2.98-5.41-7.57-5.41-13.77v-27.81c0-6.2,1.8-10.8,5.41-13.82,3.61-3.01,9.14-4.52,16.59-4.52h21.82c1.13,0,1.95,.25,2.46,.76,.51,.51,.76,1.33,.76,2.46v10.82c0,1.13-.25,1.95-.76,2.46-.51,.51-1.33,.76-2.46,.76h-17.97c-1.85,0-3.22,.37-4.11,1.12s-1.34,1.86-1.34,3.35v21.28c0,1.49,.45,2.58,1.34,3.26s2.26,1.03,4.11,1.03h17.97c1.13,0,1.95,.25,2.46,.76,.51,.51,.76,1.33,.76,2.46v10.64c0,1.13-.25,1.95-.76,2.46-.51,.51-1.33,.76-2.46,.76Z"/>
        <path d="M169.79,85.58c0,1.13-.25,1.95-.76,2.46s-1.33,.76-2.46,.76h-13.14c-1.13,0-1.95-.25-2.46-.76-.51-.51-.76-1.33-.76-2.46v-23.61c0-1.79,.28-3.85,.85-6.17,.57-2.33,1.44-5.04,2.64-8.14l7.78-20.3c.36-1.01,.91-1.76,1.65-2.24,.75-.48,1.71-.71,2.91-.71h24.05c1.13,0,2.07,.24,2.82,.71,.75,.48,1.3,1.22,1.65,2.24l7.78,20.3c1.19,3.1,2.07,5.81,2.64,8.14,.57,2.32,.85,4.38,.85,6.17v23.61c0,1.13-.25,1.95-.76,2.46-.51,.51-1.33,.76-2.46,.76h-13.5c-1.19,0-2.07-.25-2.64-.76-.57-.51-.85-1.33-.85-2.46v-12.52h-15.83v12.52Zm5.1-42.39l-4.2,13.59h14.04l-4.2-13.59c-.24-.54-.49-.92-.76-1.16s-.58-.36-.94-.36h-2.24c-.36,0-.67,.12-.94,.36s-.52,.62-.76,1.16Z"/>
        <path d="M233.9,88.8h-13.86c-1.13,0-1.95-.25-2.46-.76-.51-.51-.76-1.33-.76-2.46V27.64c0-1.13,.25-1.95,.76-2.46,.51-.51,1.33-.76,2.46-.76h27.36c8.11,0,13.65,1.61,16.63,4.83,2.98,3.22,4.47,7.42,4.47,12.61v11.45c0,5.19-1.49,9.39-4.47,12.61-2.98,3.22-8.53,4.83-16.63,4.83h-10.28v14.84c0,1.13-.26,1.95-.76,2.46-.51,.51-1.33,.76-2.46,.76Zm3.04-47.66v13.5h8.05c1.73,0,2.86-.45,3.4-1.34,.54-.89,.8-1.91,.8-3.04v-4.74c0-1.13-.27-2.15-.8-3.04-.54-.89-1.67-1.34-3.4-1.34h-8.05Z"/>
        <path d="M308.22,88.8h-14.49c-1.13,0-1.95-.25-2.46-.76-.51-.51-.76-1.33-.76-2.46V41.68h-13.14c-1.13,0-1.95-.25-2.46-.76-.51-.51-.76-1.33-.76-2.46v-10.82c0-1.13,.25-1.95,.76-2.46,.51-.51,1.33-.76,2.46-.76h47.22c1.13,0,1.95,.25,2.46,.76,.51,.51,.76,1.33,.76,2.46v10.82c0,1.13-.25,1.95-.76,2.46s-1.33,.76-2.46,.76h-13.15v43.91c0,1.13-.25,1.95-.76,2.46-.51,.51-1.33,.76-2.46,.76Z"/>
        <path d="M391.29,71.9c0,2.74-.4,5.23-1.21,7.47s-2.24,4.14-4.29,5.72c-2.06,1.58-4.87,2.82-8.45,3.71s-8.14,1.34-13.68,1.34-10.11-.45-13.68-1.34c-3.58-.89-6.39-2.13-8.45-3.71-2.06-1.58-3.49-3.49-4.29-5.72s-1.21-4.72-1.21-7.47V27.64c0-1.13,.25-1.95,.76-2.46s1.33-.76,2.46-.76h14.04c1.13,0,1.95,.25,2.46,.76,.51,.51,.76,1.33,.76,2.46v40.78c0,1.19,.45,2.19,1.34,3,.89,.8,2.89,1.21,5.99,1.21s5.19-.4,6.08-1.21c.89-.8,1.34-1.8,1.34-3V27.64c0-1.13,.25-1.95,.76-2.46s1.33-.76,2.46-.76h13.59c1.13,0,1.95,.25,2.46,.76,.51,.51,.76,1.33,.76,2.46v44.27Z"/>
        <path d="M420.17,88.8h-13.77c-1.13,0-1.95-.25-2.46-.76-.51-.51-.76-1.33-.76-2.46V27.64c0-1.13,.25-1.95,.76-2.46s1.33-.76,2.46-.76h29.78c6.68,0,11.28,1.39,13.82,4.16,2.53,2.77,3.8,6.37,3.8,10.78v4.11c0,2.5-.37,4.64-1.12,6.39-.75,1.76-2.04,3.03-3.89,3.8,3.22,.36,5.83,1.67,7.83,3.93,2,2.27,3,5.28,3,9.03v18.96c0,1.13-.25,1.95-.76,2.46-.51,.51-1.33,.76-2.46,.76h-13.86c-1.13,0-1.95-.25-2.46-.76-.51-.51-.76-1.33-.76-2.46v-13.68c0-1.31-.25-2.28-.76-2.91-.51-.63-1.39-.94-2.64-.94h-12.52v17.53c0,1.13-.25,1.95-.76,2.46-.51,.51-1.33,.76-2.46,.76Zm3.22-48.29v11.45h6.71c1.55,0,2.59-.4,3.13-1.21s.8-1.8,.8-3v-3.04c0-1.19-.27-2.19-.8-3s-1.58-1.21-3.13-1.21h-6.71Z"/>
        <path d="M514.34,88.8h-41.49c-1.13,0-1.95-.25-2.46-.76-.51-.51-.76-1.33-.76-2.46V27.64c0-1.13,.25-1.95,.76-2.46s1.33-.76,2.46-.76h41.49c1.13,0,1.95,.25,2.46,.76,.51,.51,.76,1.33,.76,2.46v10.46c0,1.13-.25,1.95-.76,2.46s-1.33,.76-2.46,.76h-24.68v6.89h17.44c1.13,0,1.95,.25,2.46,.76,.5,.51,.76,1.33,.76,2.46v9.57c0,1.13-.25,1.95-.76,2.46-.51,.51-1.33,.76-2.46,.76h-17.44v7.69h24.68c1.13,0,1.95,.25,2.46,.76,.51,.51,.76,1.33,.76,2.46v10.46c0,1.13-.25,1.95-.76,2.46s-1.33,.76-2.46,.76Z"/>
      </g>
    </g>
  </g>
</svg>