<?xml version="1.0" encoding="UTF-8"?>
<svg id="Layer_2" data-name="Layer 2" xmlns="http://www.w3.org/2000/svg" viewBox="0 0 583.89 184.1">
  <g id="Layer_1-2" data-name="Layer 1">
    <g>
      <path d="M136.82,69.93h-32.06c-1.21,0-2.08-.27-2.62-.81-.54-.54-.81-1.41-.81-2.62V4.85c0-1.2,.27-2.08,.81-2.62,.54-.54,1.41-.81,2.62-.81h32.06c7.93,0,13.81,1.59,17.65,4.76,3.84,3.17,5.76,8.06,5.76,14.65v29.68c0,6.6-1.92,11.48-5.76,14.65-3.84,3.17-9.72,4.76-17.65,4.76Zm-13.89-50.33V51.95h11.32c1.52,0,2.65-.38,3.38-1.14,.73-.76,1.09-1.93,1.09-3.52V24.17c0-1.58-.37-2.74-1.09-3.47-.73-.73-1.86-1.09-3.38-1.09h-11.32Z"/>
      <path d="M230.34,51.95c0,2.92-.43,5.57-1.28,7.95-.86,2.38-2.38,4.41-4.57,6.09-2.19,1.68-5.2,3-9.04,3.95-3.84,.95-8.71,1.43-14.6,1.43s-10.78-.48-14.65-1.43-6.9-2.27-9.09-3.95-3.71-3.71-4.57-6.09c-.86-2.38-1.29-5.03-1.29-7.95V19.5c0-2.92,.43-5.57,1.29-7.95,.86-2.38,2.38-4.42,4.57-6.14,2.19-1.71,5.22-3.04,9.09-4,3.87-.95,8.75-1.43,14.65-1.43s10.77,.48,14.6,1.43c3.84,.95,6.85,2.28,9.04,4,2.19,1.71,3.71,3.76,4.57,6.14,.86,2.38,1.28,5.03,1.28,7.95V51.95Zm-37.49-3.42c0,1.27,.48,2.33,1.43,3.19,.95,.86,3.14,1.29,6.56,1.29s5.61-.43,6.56-1.29c.95-.86,1.43-1.92,1.43-3.19V22.93c0-1.2-.48-2.24-1.43-3.09-.95-.86-3.14-1.28-6.56-1.28s-5.61,.43-6.56,1.28c-.95,.86-1.43,1.89-1.43,3.09v25.59Z"/>
      <path d="M298.56,69.93h-15.41c-1.21,0-2.08-.27-2.62-.81-.54-.54-.81-1.41-.81-2.62v-12.18l-14.56-19.5c-1.46-1.97-2.43-3.68-2.9-5.14-.47-1.46-.71-3.65-.71-6.56V4.85c0-1.2,.27-2.08,.81-2.62,.54-.54,1.41-.81,2.62-.81h14.65c1.21,0,2.08,.27,2.62,.81,.54,.54,.81,1.41,.81,2.62v15.6c0,.63,.03,1.3,.1,2,.06,.7,.32,1.37,.76,2l4.38,6.85c.32,.57,.65,.98,1,1.24,.35,.25,.78,.38,1.28,.38h.95c.51,0,.93-.13,1.28-.38,.35-.25,.68-.67,1-1.24l4.38-6.85c.44-.63,.7-1.3,.76-2,.06-.7,.1-1.36,.1-2V4.85c0-1.2,.27-2.08,.81-2.62,.54-.54,1.41-.81,2.62-.81h14.18c1.2,0,2.08,.27,2.62,.81,.54,.54,.81,1.41,.81,2.62V23.12c0,2.92-.26,5.11-.76,6.56-.51,1.46-1.46,3.17-2.85,5.14l-14.46,19.6v12.08c0,1.21-.27,2.08-.81,2.62-.54,.54-1.41,.81-2.62,.81Z"/>
      <path d="M388.95,51.95c0,2.92-.43,5.57-1.28,7.95-.86,2.38-2.38,4.41-4.57,6.09-2.19,1.68-5.2,3-9.04,3.95-3.84,.95-8.71,1.43-14.61,1.43s-10.78-.48-14.65-1.43-6.9-2.27-9.09-3.95-3.71-3.71-4.57-6.09c-.86-2.38-1.29-5.03-1.29-7.95V19.5c0-2.92,.43-5.57,1.29-7.95,.86-2.38,2.38-4.42,4.57-6.14,2.19-1.71,5.22-3.04,9.09-4,3.87-.95,8.75-1.43,14.65-1.43s10.77,.48,14.61,1.43c3.84,.95,6.85,2.28,9.04,4,2.19,1.71,3.71,3.76,4.57,6.14,.86,2.38,1.28,5.03,1.28,7.95V51.95Zm-37.49-3.42c0,1.27,.48,2.33,1.43,3.19,.95,.86,3.14,1.29,6.56,1.29s5.61-.43,6.56-1.29c.95-.86,1.43-1.92,1.43-3.19V22.93c0-1.2-.48-2.24-1.43-3.09-.95-.86-3.14-1.28-6.56-1.28s-5.61,.43-6.56,1.28c-.95,.86-1.43,1.89-1.43,3.09v25.59Z"/>
      <path d="M459.35,51.95c0,2.92-.43,5.57-1.28,7.95-.86,2.38-2.38,4.41-4.57,6.09-2.19,1.68-5.18,3-8.99,3.95-3.8,.95-8.66,1.43-14.56,1.43s-10.75-.48-14.56-1.43c-3.81-.95-6.8-2.27-8.99-3.95-2.19-1.68-3.71-3.71-4.57-6.09-.86-2.38-1.29-5.03-1.29-7.95V4.85c0-1.2,.27-2.08,.81-2.62,.54-.54,1.41-.81,2.62-.81h14.94c1.21,0,2.08,.27,2.62,.81,.54,.54,.81,1.41,.81,2.62V48.24c0,1.27,.47,2.33,1.43,3.19,.95,.86,3.07,1.29,6.37,1.29s5.52-.43,6.47-1.29c.95-.86,1.43-1.92,1.43-3.19V4.85c0-1.2,.27-2.08,.81-2.62s1.41-.81,2.62-.81h14.46c1.2,0,2.08,.27,2.62,.81,.54,.54,.81,1.41,.81,2.62V51.95Z"/>
      <path d="M51.85,184.1H3.42c-1.21,0-2.08-.27-2.62-.81-.54-.54-.81-1.41-.81-2.62v-61.65c0-1.2,.27-2.08,.81-2.62,.54-.54,1.41-.81,2.62-.81h14.75c1.2,0,2.08,.27,2.62,.81,.54,.54,.81,1.41,.81,2.62v47.1h13.03v-15.41c0-1.21,.27-2.08,.81-2.62,.54-.54,1.41-.81,2.62-.81h13.8c1.2,0,2.08,.27,2.62,.81,.54,.54,.81,1.41,.81,2.62v29.97c0,1.21-.27,2.08-.81,2.62-.54,.54-1.41,.81-2.62,.81Z"/>
      <path d="M68.03,184.1c-1.21,0-2.08-.27-2.62-.81-.54-.54-.81-1.41-.81-2.62v-11.32c0-1.21,.27-2.08,.81-2.62,.54-.54,1.41-.81,2.62-.81h9.42v-31.97h-9.42c-1.21,0-2.08-.27-2.62-.81-.54-.54-.81-1.41-.81-2.62v-11.51c0-1.2,.27-2.08,.81-2.62,.54-.54,1.41-.81,2.62-.81h40.53c1.2,0,2.08,.27,2.62,.81,.54,.54,.81,1.41,.81,2.62v11.51c0,1.21-.27,2.08-.81,2.62-.54,.54-1.41,.81-2.62,.81h-9.23v31.97h9.23c1.2,0,2.08,.27,2.62,.81,.54,.54,.81,1.41,.81,2.62v11.32c0,1.21-.27,2.08-.81,2.62-.54,.54-1.41,.81-2.62,.81h-40.53Z"/>
      <path d="M141.86,184.1h-14.75c-1.21,0-2.08-.27-2.62-.81-.54-.54-.81-1.41-.81-2.62v-61.65c0-1.2,.27-2.08,.81-2.62,.54-.54,1.41-.81,2.62-.81h14.75c1.2,0,2.08,.27,2.62,.81,.54,.54,.81,1.41,.81,2.62v21.88h3.81l9.8-22.17c.44-1.14,1.05-1.95,1.81-2.43,.76-.48,1.74-.71,2.95-.71h14.65c1.08,0,1.81,.27,2.19,.81,.38,.54,.35,1.32-.09,2.33l-9.7,22.17c3.55,.19,6.39,1.44,8.51,3.76,2.12,2.32,3.19,5.38,3.19,9.18v26.83c0,1.21-.27,2.08-.81,2.62-.54,.54-1.41,.81-2.62,.81h-14.65c-1.21,0-2.08-.27-2.62-.81-.54-.54-.81-1.41-.81-2.62v-18.55c0-1.01-.25-1.81-.76-2.38-.51-.57-1.27-.86-2.28-.86h-12.56v21.79c0,1.21-.27,2.08-.81,2.62-.54,.54-1.41,.81-2.62,.81Z"/>
      <path d="M242.23,184.1h-44.15c-1.21,0-2.08-.27-2.62-.81-.54-.54-.81-1.41-.81-2.62v-61.65c0-1.2,.27-2.08,.81-2.62s1.41-.81,2.62-.81h44.15c1.21,0,2.08,.27,2.62,.81,.54,.54,.81,1.41,.81,2.62v11.13c0,1.21-.27,2.08-.81,2.62-.54,.54-1.41,.81-2.62,.81h-26.26v7.33h18.55c1.2,0,2.08,.27,2.62,.81,.54,.54,.81,1.41,.81,2.62v10.18c0,1.21-.27,2.08-.81,2.62s-1.41,.81-2.62,.81h-18.55v8.18h26.26c1.21,0,2.08,.27,2.62,.81,.54,.54,.81,1.41,.81,2.62v11.13c0,1.21-.27,2.08-.81,2.62-.54,.54-1.41,.81-2.62,.81Z"/>
      <path d="M310.64,184.1h-15.41c-1.21,0-2.08-.27-2.62-.81-.54-.54-.81-1.41-.81-2.62v-46.72h-13.98c-1.21,0-2.08-.27-2.62-.81-.54-.54-.81-1.41-.81-2.62v-11.51c0-1.2,.27-2.08,.81-2.62,.54-.54,1.41-.81,2.62-.81h50.23c1.21,0,2.08,.27,2.62,.81,.54,.54,.81,1.41,.81,2.62v11.51c0,1.21-.27,2.08-.81,2.62-.54,.54-1.41,.81-2.62,.81h-13.99v46.72c0,1.21-.27,2.08-.81,2.62-.54,.54-1.41,.81-2.62,.81Z"/>
      <path d="M358.88,184.1h-14.75c-1.21,0-2.08-.27-2.62-.81-.54-.54-.81-1.41-.81-2.62v-61.65c0-1.2,.27-2.08,.81-2.62,.54-.54,1.41-.81,2.62-.81h14.75c1.2,0,2.08,.27,2.62,.81,.54,.54,.81,1.41,.81,2.62v20.65h15.89v-20.65c0-1.2,.27-2.08,.81-2.62,.54-.54,1.41-.81,2.62-.81h14.75c1.2,0,2.08,.27,2.62,.81,.54,.54,.81,1.41,.81,2.62v61.65c0,1.21-.27,2.08-.81,2.62-.54,.54-1.41,.81-2.62,.81h-14.75c-1.21,0-2.08-.27-2.62-.81-.54-.54-.81-1.41-.81-2.62v-21.12h-15.89v21.12c0,1.21-.27,2.08-.81,2.62-.54,.54-1.41,.81-2.62,.81Z"/>
      <path d="M414.82,184.1c-1.21,0-2.08-.27-2.62-.81-.54-.54-.81-1.41-.81-2.62v-11.32c0-1.21,.27-2.08,.81-2.62,.54-.54,1.41-.81,2.62-.81h9.42v-31.97h-9.42c-1.21,0-2.08-.27-2.62-.81-.54-.54-.81-1.41-.81-2.62v-11.51c0-1.2,.27-2.08,.81-2.62,.54-.54,1.41-.81,2.62-.81h40.53c1.21,0,2.08,.27,2.62,.81,.54,.54,.81,1.41,.81,2.62v11.51c0,1.21-.27,2.08-.81,2.62-.54,.54-1.41,.81-2.62,.81h-9.23v31.97h9.23c1.21,0,2.08,.27,2.62,.81,.54,.54,.81,1.41,.81,2.62v11.32c0,1.21-.27,2.08-.81,2.62-.54,.54-1.41,.81-2.62,.81h-40.53Z"/>
      <path d="M502.26,184.1h-30.07c-1.21,0-2.08-.27-2.62-.81-.54-.54-.81-1.41-.81-2.62v-11.13c0-1.2,.27-2.08,.81-2.62,.54-.54,1.41-.81,2.62-.81h25.59c.82,0,1.44-.27,1.86-.81,.41-.54,.62-1.19,.62-1.95,0-1.08-.21-1.87-.62-2.38s-1.03-.79-1.86-.86l-14.27-2c-4.44-.63-8.01-2.09-10.7-4.38-2.7-2.28-4.04-6.09-4.04-11.42v-9.99c0-5.39,1.74-9.53,5.23-12.42,3.49-2.89,8.31-4.33,14.46-4.33h26.64c1.21,0,2.08,.27,2.62,.81,.54,.54,.81,1.41,.81,2.62v11.32c0,1.21-.27,2.08-.81,2.62-.54,.54-1.41,.81-2.62,.81h-22.17c-.83,0-1.46,.27-1.9,.81-.45,.54-.67,1.22-.67,2.04s.22,1.52,.67,2.09c.44,.57,1.08,.89,1.9,.95l14.18,1.9c4.44,.63,8.02,2.09,10.75,4.38,2.73,2.28,4.09,6.09,4.09,11.42v9.99c0,5.39-1.76,9.53-5.28,12.42-3.52,2.89-8.33,4.33-14.41,4.33Z"/>
      <path d="M569.15,158.13l-25.79,3.52c-1.21,.13-2.08-.03-2.62-.48-.54-.44-.9-1.27-1.1-2.47l-2-12.56c-.19-1.2-.02-2.12,.52-2.76,.54-.63,1.41-1.01,2.62-1.14l18.93-2.66c.95-.12,1.62-.41,2-.86,.38-.44,.57-1.14,.57-2.09,0-.89-.22-1.55-.67-2-.44-.44-1.08-.67-1.9-.67h-26.26c-1.21,0-2.08-.27-2.62-.81-.54-.54-.81-1.41-.81-2.62v-11.51c0-1.2,.27-2.08,.81-2.62,.54-.54,1.41-.81,2.62-.81h30.73c6.15,0,10.97,1.44,14.46,4.33,3.49,2.89,5.23,7.03,5.23,12.42v9.99c0,5.33-1.33,9.13-4,11.42-2.66,2.28-6.25,3.74-10.75,4.38Zm-10.66,25.97h-17.41c-1.21,0-2.08-.27-2.62-.81-.54-.54-.81-1.41-.81-2.62v-12.46c0-1.2,.27-2.08,.81-2.62,.54-.54,1.41-.81,2.62-.81h17.41c1.2,0,2.08,.27,2.62,.81,.54,.54,.81,1.41,.81,2.62v12.46c0,1.21-.27,2.08-.81,2.62-.54,.54-1.41,.81-2.62,.81Z"/>
    </g>
  </g>
</svg>