<?xml version="1.0" encoding="UTF-8"?>
<svg id="Layer_2" data-name="Layer 2" xmlns="http://www.w3.org/2000/svg" viewBox="0 0 648.78 68.5">
  <g id="Layer_1-2" data-name="Layer 1">
    <g>
      <path d="M53.38,68.5H23.41c-7.93,0-13.81-1.58-17.65-4.76-3.84-3.17-5.76-8.05-5.76-14.65V19.41C0,12.81,1.92,7.93,5.76,4.76,9.59,1.59,15.48,0,23.41,0h23.79c1.2,0,2.08,.27,2.62,.81,.54,.54,.81,1.41,.81,2.62V14.94c0,1.21-.27,2.08-.81,2.62-.54,.54-1.41,.81-2.62,.81H27.4c-1.97,0-3.42,.4-4.38,1.19-.95,.79-1.43,1.98-1.43,3.57v22.74c0,1.59,.36,2.76,1.09,3.52,.73,.76,1.82,1.14,3.28,1.14h9.23v-14.84c0-1.2,.27-2.08,.81-2.62,.54-.54,1.41-.81,2.62-.81h14.75c1.2,0,2.08,.27,2.62,.81,.54,.54,.81,1.41,.81,2.62v29.4c0,1.21-.27,2.08-.81,2.62-.54,.54-1.41,.81-2.62,.81Z"/>
      <path d="M115.98,68.5h-44.15c-1.21,0-2.08-.27-2.62-.81-.54-.54-.81-1.41-.81-2.62V3.43c0-1.2,.27-2.08,.81-2.62,.54-.54,1.41-.81,2.62-.81h44.15c1.2,0,2.08,.27,2.62,.81,.54,.54,.81,1.41,.81,2.62V14.56c0,1.21-.27,2.08-.81,2.62-.54,.54-1.41,.81-2.62,.81h-26.26v7.33h18.55c1.2,0,2.08,.27,2.62,.81,.54,.54,.81,1.41,.81,2.62v10.18c0,1.21-.27,2.08-.81,2.62-.54,.54-1.41,.81-2.62,.81h-18.55v8.18h26.26c1.2,0,2.08,.27,2.62,.81,.54,.54,.81,1.41,.81,2.62v11.13c0,1.21-.27,2.08-.81,2.62-.54,.54-1.41,.81-2.62,.81Z"/>
      <path d="M162.98,68.5h-15.41c-1.21,0-2.08-.27-2.62-.81-.54-.54-.81-1.41-.81-2.62V18.36h-13.99c-1.21,0-2.08-.27-2.62-.81-.54-.54-.81-1.41-.81-2.62V3.43c0-1.2,.27-2.08,.81-2.62s1.41-.81,2.62-.81h50.24c1.2,0,2.08,.27,2.62,.81,.54,.54,.81,1.41,.81,2.62V14.94c0,1.21-.27,2.08-.81,2.62-.54,.54-1.41,.81-2.62,.81h-13.99v46.71c0,1.21-.27,2.08-.81,2.62-.54,.54-1.41,.81-2.62,.81Z"/>
      <path d="M259.08,68.5h-23.21c-7.93,0-13.81-1.58-17.65-4.76-3.84-3.17-5.76-8.05-5.76-14.65V19.5c0-6.6,1.92-11.5,5.76-14.7,3.84-3.2,9.72-4.8,17.65-4.8h23.21c1.2,0,2.08,.27,2.62,.81,.54,.54,.81,1.41,.81,2.62V14.94c0,1.21-.27,2.08-.81,2.62-.54,.54-1.41,.81-2.62,.81h-19.12c-1.97,0-3.42,.4-4.38,1.19-.95,.79-1.43,1.98-1.43,3.57v22.64c0,1.59,.48,2.74,1.43,3.47,.95,.73,2.41,1.09,4.38,1.09h19.12c1.2,0,2.08,.27,2.62,.81,.54,.54,.81,1.41,.81,2.62v11.32c0,1.21-.27,2.08-.81,2.62-.54,.54-1.41,.81-2.62,.81Z"/>
      <path d="M325.1,68.5h-48.43c-1.21,0-2.08-.27-2.62-.81-.54-.54-.81-1.41-.81-2.62V3.43c0-1.2,.27-2.08,.81-2.62,.54-.54,1.41-.81,2.62-.81h14.75c1.2,0,2.08,.27,2.62,.81,.54,.54,.81,1.41,.81,2.62V50.52h13.04v-15.41c0-1.2,.27-2.08,.81-2.62,.54-.54,1.41-.81,2.62-.81h13.8c1.2,0,2.08,.27,2.62,.81,.54,.54,.81,1.41,.81,2.62v29.97c0,1.21-.27,2.08-.81,2.62s-1.41,.81-2.62,.81Z"/>
      <path d="M341.28,68.5c-1.21,0-2.08-.27-2.62-.81-.54-.54-.81-1.41-.81-2.62v-11.32c0-1.2,.27-2.08,.81-2.62s1.41-.81,2.62-.81h9.42V18.36h-9.42c-1.21,0-2.08-.27-2.62-.81-.54-.54-.81-1.41-.81-2.62V3.43c0-1.2,.27-2.08,.81-2.62s1.41-.81,2.62-.81h40.53c1.2,0,2.08,.27,2.62,.81,.54,.54,.81,1.41,.81,2.62V14.94c0,1.21-.27,2.08-.81,2.62s-1.41,.81-2.62,.81h-9.23v31.97h9.23c1.2,0,2.08,.27,2.62,.81,.54,.54,.81,1.41,.81,2.62v11.32c0,1.21-.27,2.08-.81,2.62s-1.41,.81-2.62,.81h-40.53Z"/>
      <path d="M442.51,68.5h-23.21c-7.93,0-13.81-1.58-17.65-4.76-3.84-3.17-5.76-8.05-5.76-14.65V19.5c0-6.6,1.92-11.5,5.76-14.7,3.84-3.2,9.72-4.8,17.65-4.8h23.21c1.2,0,2.08,.27,2.62,.81,.54,.54,.81,1.41,.81,2.62V14.94c0,1.21-.27,2.08-.81,2.62s-1.41,.81-2.62,.81h-19.12c-1.97,0-3.42,.4-4.38,1.19-.95,.79-1.43,1.98-1.43,3.57v22.64c0,1.59,.48,2.74,1.43,3.47,.95,.73,2.41,1.09,4.38,1.09h19.12c1.2,0,2.08,.27,2.62,.81,.54,.54,.81,1.41,.81,2.62v11.32c0,1.21-.27,2.08-.81,2.62s-1.41,.81-2.62,.81Z"/>
      <path d="M474.86,68.5h-14.75c-1.21,0-2.08-.27-2.62-.81-.54-.54-.81-1.41-.81-2.62V3.43c0-1.2,.27-2.08,.81-2.62s1.41-.81,2.62-.81h14.75c1.2,0,2.08,.27,2.62,.81,.54,.54,.81,1.41,.81,2.62V25.31h3.81l9.8-22.17c.44-1.14,1.05-1.95,1.81-2.43,.76-.48,1.74-.71,2.95-.71h14.65c1.08,0,1.81,.27,2.19,.81,.38,.54,.35,1.32-.09,2.33l-9.71,22.17c3.55,.19,6.39,1.44,8.52,3.76,2.12,2.32,3.19,5.38,3.19,9.18v26.83c0,1.21-.27,2.08-.81,2.62-.54,.54-1.41,.81-2.62,.81h-14.65c-1.21,0-2.08-.27-2.62-.81-.54-.54-.81-1.41-.81-2.62v-18.55c0-1.01-.25-1.81-.76-2.38-.51-.57-1.27-.86-2.28-.86h-12.56v21.79c0,1.21-.27,2.08-.81,2.62s-1.41,.81-2.62,.81Z"/>
      <path d="M575.24,68.5h-44.15c-1.21,0-2.08-.27-2.62-.81-.54-.54-.81-1.41-.81-2.62V3.43c0-1.2,.27-2.08,.81-2.62s1.41-.81,2.62-.81h44.15c1.2,0,2.08,.27,2.62,.81,.54,.54,.81,1.41,.81,2.62V14.56c0,1.21-.27,2.08-.81,2.62s-1.41,.81-2.62,.81h-26.26v7.33h18.55c1.2,0,2.08,.27,2.62,.81,.54,.54,.81,1.41,.81,2.62v10.18c0,1.21-.27,2.08-.81,2.62s-1.41,.81-2.62,.81h-18.55v8.18h26.26c1.2,0,2.08,.27,2.62,.81,.54,.54,.81,1.41,.81,2.62v11.13c0,1.21-.27,2.08-.81,2.62s-1.41,.81-2.62,.81Z"/>
      <path d="M625.38,68.5h-32.06c-1.21,0-2.08-.27-2.62-.81-.54-.54-.81-1.41-.81-2.62V3.43c0-1.2,.27-2.08,.81-2.62s1.41-.81,2.62-.81h32.06c7.93,0,13.81,1.59,17.65,4.76,3.84,3.17,5.76,8.06,5.76,14.65v29.69c0,6.6-1.92,11.48-5.76,14.65-3.84,3.17-9.72,4.76-17.65,4.76Zm-13.89-50.33V50.52h11.32c1.52,0,2.65-.38,3.38-1.14,.73-.76,1.09-1.93,1.09-3.52V22.74c0-1.58-.37-2.74-1.09-3.47-.73-.73-1.86-1.09-3.38-1.09h-11.32Z"/>
    </g>
  </g>
</svg>