<?xml version="1.0" encoding="UTF-8"?>
<svg id="Layer_2" data-name="Layer 2" xmlns="http://www.w3.org/2000/svg" xmlns:xlink="http://www.w3.org/1999/xlink" viewBox="0 0 633 126">
  <defs>
    <style>
      .cls-1 {
        fill: url(#linear-gradient);
        filter: url(#drop-shadow-1);
      }
    </style>
    <linearGradient id="linear-gradient" x1="309.73" y1="103.01" x2="309.73" y2="8.41" gradientUnits="userSpaceOnUse">
      <stop offset="0" stop-color="#1bb8d2"/>
      <stop offset="1" stop-color="#83d1da"/>
    </linearGradient>
    <filter id="drop-shadow-1" filterUnits="userSpaceOnUse">
      <feOffset dx="7" dy="7"/>
      <feGaussianBlur result="blur" stdDeviation="5"/>
      <feFlood flood-color="#000" flood-opacity=".75"/>
      <feComposite in2="blur" operator="in"/>
      <feComposite in="SourceGraphic"/>
    </filter>
  </defs>
  <g id="Layer_1-2" data-name="Layer 1">
    <g>
      <rect class="cls-1" x="8.59" y="8.41" width="602.28" height="94.6" rx="47.3" ry="47.3"/>
      <g>
        <path d="M177.52,80.81h-11.23c-.92,0-1.59-.21-2.01-.62-.41-.41-.62-1.08-.62-2.01V30.92c0-.92,.21-1.59,.62-2.01,.41-.41,1.08-.62,2.01-.62h24.29c5.45,0,9.2,1.13,11.27,3.39,2.07,2.26,3.1,5.19,3.1,8.79v3.35c0,2.04-.3,3.78-.91,5.22-.61,1.43-1.67,2.47-3.17,3.1,2.62,.29,4.75,1.36,6.38,3.21,1.63,1.85,2.44,4.3,2.44,7.37v15.46c0,.92-.21,1.59-.62,2.01s-1.08,.62-2.01,.62h-11.31c-.92,0-1.59-.21-2.01-.62-.41-.41-.62-1.08-.62-2.01v-11.16c0-1.07-.21-1.86-.62-2.37-.41-.51-1.13-.77-2.15-.77h-10.21v14.3c0,.92-.21,1.59-.62,2.01s-1.08,.62-2.01,.62Zm2.63-39.39v9.34h5.47c1.26,0,2.12-.33,2.55-.98s.66-1.47,.66-2.44v-2.48c0-.97-.22-1.79-.66-2.44s-1.29-.98-2.55-.98h-5.47Z"/>
        <path d="M254.33,80.81h-33.85c-.92,0-1.59-.21-2.01-.62-.41-.41-.62-1.08-.62-2.01V30.92c0-.92,.21-1.59,.62-2.01,.41-.41,1.08-.62,2.01-.62h33.85c.92,0,1.59,.21,2.01,.62,.41,.41,.62,1.08,.62,2.01v8.53c0,.92-.21,1.59-.62,2.01-.41,.41-1.08,.62-2.01,.62h-20.13v5.62h14.22c.92,0,1.59,.21,2.01,.62,.41,.41,.62,1.08,.62,2.01v7.8c0,.92-.21,1.59-.62,2.01-.41,.41-1.08,.62-2.01,.62h-14.22v6.27h20.13c.92,0,1.59,.21,2.01,.62,.41,.41,.62,1.08,.62,2.01v8.53c0,.92-.21,1.59-.62,2.01s-1.08,.62-2.01,.62Z"/>
        <path d="M290.36,80.81h-11.82c-.92,0-1.59-.21-2.01-.62-.41-.41-.62-1.08-.62-2.01V42.37h-10.72c-.92,0-1.59-.21-2.01-.62s-.62-1.08-.62-2.01v-8.83c0-.92,.21-1.59,.62-2.01s1.08-.62,2.01-.62h38.51c.92,0,1.59,.21,2.01,.62,.41,.41,.62,1.08,.62,2.01v8.83c0,.92-.21,1.59-.62,2.01-.41,.41-1.08,.62-2.01,.62h-10.72v35.81c0,.92-.21,1.59-.62,2.01s-1.08,.62-2.01,.62Z"/>
        <path d="M325.37,78.18c0,.92-.21,1.59-.62,2.01-.41,.41-1.08,.62-2.01,.62h-10.72c-.92,0-1.59-.21-2.01-.62-.41-.41-.62-1.08-.62-2.01v-19.26c0-1.46,.23-3.14,.69-5.03,.46-1.9,1.18-4.11,2.15-6.64l6.35-16.56c.29-.83,.74-1.43,1.35-1.82,.61-.39,1.4-.58,2.37-.58h19.62c.92,0,1.69,.19,2.3,.58,.61,.39,1.06,1,1.35,1.82l6.35,16.56c.97,2.53,1.69,4.74,2.15,6.64,.46,1.9,.69,3.57,.69,5.03v19.26c0,.92-.21,1.59-.62,2.01s-1.08,.62-2.01,.62h-11.01c-.97,0-1.69-.21-2.15-.62-.46-.41-.69-1.08-.69-2.01v-10.21h-12.91v10.21Zm4.16-34.58l-3.43,11.09h11.45l-3.43-11.09c-.2-.44-.4-.75-.62-.95-.22-.19-.47-.29-.77-.29h-1.82c-.29,0-.55,.1-.77,.29-.22,.2-.43,.51-.62,.95Z"/>
        <path d="M377.67,80.81h-11.31c-.92,0-1.59-.21-2.01-.62-.41-.41-.62-1.08-.62-2.01V30.92c0-.92,.21-1.59,.62-2.01,.41-.41,1.08-.62,2.01-.62h11.31c.92,0,1.59,.21,2.01,.62s.62,1.08,.62,2.01v16.78h2.92l7.51-17c.34-.88,.8-1.5,1.39-1.86,.58-.37,1.34-.55,2.26-.55h11.23c.83,0,1.39,.21,1.68,.62s.27,1.01-.07,1.79l-7.44,17c2.72,.15,4.9,1.11,6.53,2.88s2.44,4.12,2.44,7.04v20.57c0,.92-.21,1.59-.62,2.01s-1.08,.62-2.01,.62h-11.23c-.92,0-1.59-.21-2.01-.62-.41-.41-.62-1.08-.62-2.01v-14.22c0-.78-.2-1.39-.58-1.82-.39-.44-.97-.66-1.75-.66h-9.63v16.7c0,.92-.21,1.59-.62,2.01-.41,.41-1.08,.62-2.01,.62Z"/>
        <path d="M454.63,80.81h-33.85c-.92,0-1.59-.21-2.01-.62-.41-.41-.62-1.08-.62-2.01V30.92c0-.92,.21-1.59,.62-2.01,.41-.41,1.08-.62,2.01-.62h33.85c.92,0,1.59,.21,2.01,.62,.41,.41,.62,1.08,.62,2.01v8.53c0,.92-.21,1.59-.62,2.01-.41,.41-1.08,.62-2.01,.62h-20.13v5.62h14.22c.92,0,1.59,.21,2.01,.62,.41,.41,.62,1.08,.62,2.01v7.8c0,.92-.21,1.59-.62,2.01-.41,.41-1.08,.62-2.01,.62h-14.22v6.27h20.13c.92,0,1.59,.21,2.01,.62,.41,.41,.62,1.08,.62,2.01v8.53c0,.92-.21,1.59-.62,2.01s-1.08,.62-2.01,.62Z"/>
      </g>
    </g>
  </g>
</svg>