<?xml version="1.0" encoding="UTF-8"?>
<svg id="Layer_2" data-name="Layer 2" xmlns="http://www.w3.org/2000/svg" xmlns:xlink="http://www.w3.org/1999/xlink" viewBox="0 0 633 125">
  <defs>
    <style>
      .cls-1 {
        fill: url(#linear-gradient);
        filter: url(#drop-shadow-1);
      }
    </style>
    <linearGradient id="linear-gradient" x1="309.73" y1="102.65" x2="309.73" y2="8.05" gradientUnits="userSpaceOnUse">
      <stop offset="0" stop-color="#1bb8d2"/>
      <stop offset="1" stop-color="#83d1da"/>
    </linearGradient>
    <filter id="drop-shadow-1" filterUnits="userSpaceOnUse">
      <feOffset dx="7" dy="7"/>
      <feGaussianBlur result="blur" stdDeviation="5"/>
      <feFlood flood-color="#000" flood-opacity=".75"/>
      <feComposite in2="blur" operator="in"/>
      <feComposite in="SourceGraphic"/>
    </filter>
  </defs>
  <g id="Layer_1-2" data-name="Layer 1">
    <g>
      <rect class="cls-1" x="8.59" y="8.05" width="602.28" height="94.6" rx="47.3" ry="47.3"/>
      <g>
        <path d="M90.13,82.95h-11.82c-.92,0-1.59-.21-2.01-.62-.41-.41-.62-1.08-.62-2.01v-9.34l-11.16-14.95c-1.12-1.51-1.86-2.82-2.23-3.94-.36-1.12-.55-2.8-.55-5.03v-14c0-.92,.21-1.59,.62-2.01,.41-.41,1.08-.62,2.01-.62h11.23c.92,0,1.59,.21,2.01,.62s.62,1.08,.62,2.01v11.96c0,.49,.02,1,.07,1.53,.05,.54,.24,1.05,.58,1.53l3.36,5.25c.24,.44,.5,.75,.77,.95,.27,.2,.6,.29,.98,.29h.73c.39,0,.72-.1,.98-.29,.27-.19,.52-.51,.77-.95l3.36-5.25c.34-.49,.54-1,.58-1.53,.05-.53,.07-1.04,.07-1.53v-11.96c0-.92,.21-1.59,.62-2.01,.41-.41,1.08-.62,2.01-.62h10.87c.92,0,1.59,.21,2.01,.62,.41,.41,.62,1.08,.62,2.01v14c0,2.24-.2,3.92-.58,5.03-.39,1.12-1.12,2.43-2.19,3.94l-11.09,15.03v9.26c0,.92-.21,1.59-.62,2.01-.41,.41-1.08,.62-2.01,.62Z"/>
        <path d="M151.4,82.95h-33.85c-.93,0-1.59-.21-2.01-.62-.41-.41-.62-1.08-.62-2.01V33.06c0-.92,.21-1.59,.62-2.01,.41-.41,1.08-.62,2.01-.62h33.85c.92,0,1.59,.21,2.01,.62,.41,.41,.62,1.08,.62,2.01v8.53c0,.92-.21,1.59-.62,2.01-.41,.41-1.08,.62-2.01,.62h-20.13v5.62h14.22c.92,0,1.59,.21,2.01,.62s.62,1.08,.62,2.01v7.8c0,.92-.21,1.59-.62,2.01-.41,.41-1.08,.62-2.01,.62h-14.22v6.27h20.13c.92,0,1.59,.21,2.01,.62,.41,.41,.62,1.08,.62,2.01v8.53c0,.92-.21,1.59-.62,2.01s-1.08,.62-2.01,.62Z"/>
        <path d="M187,82.95h-23.05c-.92,0-1.59-.21-2.01-.62-.41-.41-.62-1.08-.62-2.01v-8.53c0-.92,.21-1.59,.62-2.01,.41-.41,1.08-.62,2.01-.62h19.62c.63,0,1.11-.21,1.42-.62,.32-.41,.47-.91,.47-1.5,0-.83-.16-1.43-.47-1.82-.32-.39-.79-.61-1.42-.66l-10.94-1.53c-3.4-.49-6.14-1.61-8.21-3.36-2.07-1.75-3.1-4.67-3.1-8.75v-7.66c0-4.13,1.34-7.31,4.01-9.52,2.67-2.21,6.37-3.32,11.09-3.32h20.42c.92,0,1.59,.21,2.01,.62s.62,1.08,.62,2.01v8.68c0,.92-.21,1.59-.62,2.01-.41,.41-1.08,.62-2.01,.62h-17c-.63,0-1.12,.21-1.46,.62-.34,.41-.51,.94-.51,1.57s.17,1.17,.51,1.6c.34,.44,.83,.68,1.46,.73l10.87,1.46c3.4,.49,6.15,1.6,8.24,3.36,2.09,1.75,3.14,4.67,3.14,8.75v7.66c0,4.13-1.35,7.31-4.05,9.52-2.7,2.21-6.38,3.32-11.05,3.32Z"/>
        <path d="M250.82,82.95h-23.05c-.92,0-1.59-.21-2.01-.62-.41-.41-.62-1.08-.62-2.01v-8.53c0-.92,.21-1.59,.62-2.01,.41-.41,1.08-.62,2.01-.62h19.62c.63,0,1.11-.21,1.42-.62,.32-.41,.47-.91,.47-1.5,0-.83-.16-1.43-.47-1.82-.32-.39-.79-.61-1.42-.66l-10.94-1.53c-3.4-.49-6.14-1.61-8.21-3.36-2.07-1.75-3.1-4.67-3.1-8.75v-7.66c0-4.13,1.34-7.31,4.01-9.52,2.67-2.21,6.37-3.32,11.09-3.32h20.42c.92,0,1.59,.21,2.01,.62s.62,1.08,.62,2.01v8.68c0,.92-.21,1.59-.62,2.01-.41,.41-1.08,.62-2.01,.62h-17c-.63,0-1.12,.21-1.46,.62-.34,.41-.51,.94-.51,1.57s.17,1.17,.51,1.6c.34,.44,.83,.68,1.46,.73l10.87,1.46c3.4,.49,6.15,1.6,8.24,3.36,2.09,1.75,3.14,4.67,3.14,8.75v7.66c0,4.13-1.35,7.31-4.05,9.52-2.7,2.21-6.38,3.32-11.05,3.32Z"/>
        <path d="M318.59,69.16c0,2.24-.33,4.27-.98,6.09-.66,1.82-1.82,3.38-3.5,4.67-1.68,1.29-3.98,2.3-6.89,3.03-2.92,.73-6.64,1.09-11.16,1.09s-8.24-.36-11.16-1.09c-2.92-.73-5.22-1.74-6.89-3.03-1.68-1.29-2.84-2.84-3.5-4.67s-.99-3.85-.99-6.09V33.06c0-.92,.21-1.59,.62-2.01,.41-.41,1.08-.62,2.01-.62h11.45c.92,0,1.59,.21,2.01,.62,.41,.41,.62,1.08,.62,2.01v33.26c0,.97,.37,1.79,1.09,2.44,.73,.66,2.36,.98,4.89,.98s4.23-.33,4.96-.98c.73-.66,1.09-1.47,1.09-2.44V33.06c0-.92,.21-1.59,.62-2.01,.41-.41,1.08-.62,2.01-.62h11.09c.92,0,1.59,.21,2.01,.62s.62,1.08,.62,2.01v36.11Z"/>
        <path d="M358.92,82.95h-28.01c-.92,0-1.59-.21-2.01-.62-.41-.41-.62-1.08-.62-2.01V33.06c0-.92,.21-1.59,.62-2.01,.41-.41,1.08-.62,2.01-.62h23.27c4.77,0,8.29,.91,10.58,2.74,2.29,1.82,3.43,4.63,3.43,8.42v3.5c0,2.04-.35,3.71-1.06,5-.71,1.29-1.79,2.25-3.25,2.88,3.11,.29,5.42,1.36,6.93,3.21,1.51,1.85,2.26,4.55,2.26,8.1v6.71c0,4.08-1.16,7.1-3.46,9.04-2.31,1.95-5.87,2.92-10.69,2.92Zm-14.22-40.12v7.88h6.2c.92,0,1.62-.24,2.08-.73,.46-.49,.69-1.22,.69-2.19v-2.04c0-.97-.23-1.7-.69-2.19-.46-.49-1.16-.73-2.08-.73h-6.2Zm0,19.11v8.61h9.48c.92,0,1.62-.24,2.08-.73,.46-.49,.69-1.21,.69-2.19v-2.84c0-.97-.23-1.69-.69-2.15-.46-.46-1.16-.69-2.08-.69h-9.48Z"/>
        <path d="M394.67,82.95h-10.87c-.93,0-1.59-.21-2.01-.62-.41-.41-.62-1.08-.62-2.01V33.06c0-.92,.21-1.59,.62-2.01,.41-.41,1.08-.62,2.01-.62h11.74c.78,0,1.42,.17,1.93,.51,.51,.34,.98,.9,1.42,1.68l6.57,11.89c.24,.44,.45,.75,.62,.95s.4,.29,.69,.29h.66c.29,0,.52-.1,.69-.29,.17-.19,.38-.51,.62-.95l6.49-11.89c.44-.78,.91-1.34,1.42-1.68,.51-.34,1.15-.51,1.93-.51h11.82c.92,0,1.59,.21,2.01,.62,.41,.41,.62,1.08,.62,2.01v47.27c0,.92-.21,1.59-.62,2.01s-1.08,.62-2.01,.62h-11.23c-.92,0-1.59-.21-2.01-.62-.41-.41-.62-1.08-.62-2.01v-25.68l-4.3,7.95c-.44,.83-.96,1.42-1.57,1.79-.61,.36-1.38,.55-2.3,.55h-2.92c-.93,0-1.69-.18-2.3-.55-.61-.37-1.13-.96-1.57-1.79l-4.3-7.95v25.68c0,.92-.21,1.59-.62,2.01-.41,.41-1.08,.62-2.01,.62Z"/>
        <path d="M444.56,82.95c-.93,0-1.59-.21-2.01-.62-.41-.41-.62-1.08-.62-2.01v-8.68c0-.92,.21-1.59,.62-2.01s1.08-.62,2.01-.62h7.22v-24.51h-7.22c-.93,0-1.59-.21-2.01-.62-.41-.41-.62-1.08-.62-2.01v-8.83c0-.92,.21-1.59,.62-2.01,.41-.41,1.08-.62,2.01-.62h31.07c.92,0,1.59,.21,2.01,.62,.41,.41,.62,1.08,.62,2.01v8.83c0,.92-.21,1.59-.62,2.01-.41,.41-1.08,.62-2.01,.62h-7.07v24.51h7.07c.92,0,1.59,.21,2.01,.62s.62,1.08,.62,2.01v8.68c0,.92-.21,1.59-.62,2.01-.41,.41-1.08,.62-2.01,.62h-31.07Z"/>
        <path d="M512.03,82.95h-11.82c-.92,0-1.59-.21-2.01-.62s-.62-1.08-.62-2.01V44.51h-10.72c-.92,0-1.59-.21-2.01-.62-.41-.41-.62-1.08-.62-2.01v-8.83c0-.92,.21-1.59,.62-2.01,.41-.41,1.08-.62,2.01-.62h38.51c.92,0,1.59,.21,2.01,.62,.41,.41,.62,1.08,.62,2.01v8.83c0,.92-.21,1.59-.62,2.01-.41,.41-1.08,.62-2.01,.62h-10.72v35.81c0,.92-.21,1.59-.62,2.01s-1.08,.62-2.01,.62Z"/>
        <path d="M551.2,63.84h-11.3c-.93,0-1.59-.21-2.01-.62-.41-.41-.65-1.08-.69-2.01l-1.09-28.16c-.05-.92,.12-1.59,.51-2.01,.39-.41,1.04-.62,1.97-.62h13.93c.92,0,1.58,.21,1.97,.62,.39,.41,.56,1.08,.51,2.01l-1.02,28.16c-.05,.92-.29,1.59-.73,2.01-.44,.41-1.12,.62-2.04,.62Zm1.09,19.11h-13.42c-.93,0-1.59-.21-2.01-.62-.41-.41-.62-1.08-.62-2.01v-9.56c0-.92,.21-1.59,.62-2.01s1.08-.62,2.01-.62h13.42c.92,0,1.59,.21,2.01,.62,.41,.41,.62,1.08,.62,2.01v9.56c0,.92-.21,1.59-.62,2.01s-1.08,.62-2.01,.62Z"/>
      </g>
    </g>
  </g>
</svg>